<svg xmlns="http://www.w3.org/2000/svg" xmlns:xlink="http://www.w3.org/1999/xlink" viewBox="0 0 192 192" preserveAspectRatio="xMidYMid" width="192" height="192" style="shape-rendering: auto; background: rgb(32, 46, 69);"><g id="pattern-group" transform="scale(0.75)"><defs>
  <filter id="pat-0.17004270919831446" x="-100%" y="-100%" width="300%" height="300%" color-interpolation-filters="sRGB">
    <feGaussianBlur in="SourceGraphic" stdDeviation="9.370000000000001"></feGaussianBlur>
    <feComponentTransfer result="cutoff">
      <feFuncA type="linear" slope="60" intercept="-40"></feFuncA>
    </feComponentTransfer>
  </filter>
</defs><g filter="url(#f)"><g style="isolation:isolate" filter="url(#pat-0.17004270919831446)">
<rect x="0" y="0" width="256" height="256" fill="none"></rect><g>
  <circle cx="-180.66031683355743" cy="233.89633765248067" r="6.115017687404286" fill="undefined"></circle> <circle cx="75.33968316644258" cy="233.89633765248067" r="6.115017687404286" fill="undefined"></circle> <circle cx="331.33968316644257" cy="233.89633765248067" r="6.115017687404286" fill="undefined"></circle> <circle cx="-180.66031683355743" cy="489.89633765248067" r="6.115017687404286" fill="undefined"></circle> <circle cx="75.33968316644258" cy="489.89633765248067" r="6.115017687404286" fill="undefined"></circle> <circle cx="331.33968316644257" cy="489.89633765248067" r="6.115017687404286" fill="undefined"></circle> <circle cx="-180.66031683355743" cy="745.8963376524807" r="6.115017687404286" fill="undefined"></circle> <circle cx="75.33968316644258" cy="745.8963376524807" r="6.115017687404286" fill="undefined"></circle> <circle cx="331.33968316644257" cy="745.8963376524807" r="6.115017687404286" fill="undefined"></circle> <circle cx="-101.8923659597925" cy="62.14148293038541" r="18.403443639500612" fill="undefined"></circle> <circle cx="154.1076340402075" cy="62.14148293038541" r="18.403443639500612" fill="undefined"></circle> <circle cx="410.1076340402075" cy="62.14148293038541" r="18.403443639500612" fill="undefined"></circle> <circle cx="-101.8923659597925" cy="318.1414829303854" r="18.403443639500612" fill="undefined"></circle> <circle cx="154.1076340402075" cy="318.1414829303854" r="18.403443639500612" fill="undefined"></circle> <circle cx="410.1076340402075" cy="318.1414829303854" r="18.403443639500612" fill="undefined"></circle> <circle cx="-101.8923659597925" cy="574.1414829303855" r="18.403443639500612" fill="undefined"></circle> <circle cx="154.1076340402075" cy="574.1414829303855" r="18.403443639500612" fill="undefined"></circle> <circle cx="410.1076340402075" cy="574.1414829303855" r="18.403443639500612" fill="undefined"></circle> <circle cx="-188.17272171419552" cy="26.25492481356664" r="20.494424320561308" fill="undefined"></circle> <circle cx="67.82727828580447" cy="26.25492481356664" r="20.494424320561308" fill="undefined"></circle> <circle cx="323.8272782858045" cy="26.25492481356664" r="20.494424320561308" fill="undefined"></circle> <circle cx="-188.17272171419552" cy="282.2549248135666" r="20.494424320561308" fill="undefined"></circle> <circle cx="67.82727828580447" cy="282.2549248135666" r="20.494424320561308" fill="undefined"></circle> <circle cx="323.8272782858045" cy="282.2549248135666" r="20.494424320561308" fill="undefined"></circle> <circle cx="-188.17272171419552" cy="538.2549248135666" r="20.494424320561308" fill="undefined"></circle> <circle cx="67.82727828580447" cy="538.2549248135666" r="20.494424320561308" fill="undefined"></circle> <circle cx="323.8272782858045" cy="538.2549248135666" r="20.494424320561308" fill="undefined"></circle> <circle cx="-74.6793247253803" cy="51.21700290011974" r="44.616690127842965" fill="undefined"></circle> <circle cx="181.3206752746197" cy="51.21700290011974" r="44.616690127842965" fill="undefined"></circle> <circle cx="437.3206752746197" cy="51.21700290011974" r="44.616690127842965" fill="undefined"></circle> <circle cx="-74.6793247253803" cy="307.2170029001197" r="44.616690127842965" fill="undefined"></circle> <circle cx="181.3206752746197" cy="307.2170029001197" r="44.616690127842965" fill="undefined"></circle> <circle cx="437.3206752746197" cy="307.2170029001197" r="44.616690127842965" fill="undefined"></circle> <circle cx="-74.6793247253803" cy="563.2170029001197" r="44.616690127842965" fill="undefined"></circle> <circle cx="181.3206752746197" cy="563.2170029001197" r="44.616690127842965" fill="undefined"></circle> <circle cx="437.3206752746197" cy="563.2170029001197" r="44.616690127842965" fill="undefined"></circle> <circle cx="-136.9305299439909" cy="97.76401264636543" r="42.52590730301153" fill="undefined"></circle> <circle cx="119.06947005600908" cy="97.76401264636543" r="42.52590730301153" fill="undefined"></circle> <circle cx="375.0694700560091" cy="97.76401264636543" r="42.52590730301153" fill="undefined"></circle> <circle cx="-136.9305299439909" cy="353.7640126463654" r="42.52590730301153" fill="undefined"></circle> <circle cx="119.06947005600908" cy="353.7640126463654" r="42.52590730301153" fill="undefined"></circle> <circle cx="375.0694700560091" cy="353.7640126463654" r="42.52590730301153" fill="undefined"></circle> <circle cx="-136.9305299439909" cy="609.7640126463655" r="42.52590730301153" fill="undefined"></circle> <circle cx="119.06947005600908" cy="609.7640126463655" r="42.52590730301153" fill="undefined"></circle> <circle cx="375.0694700560091" cy="609.7640126463655" r="42.52590730301153" fill="undefined"></circle> <circle cx="-206.93754575543485" cy="8.56588703694311" r="31.283598268906953" fill="undefined"></circle> <circle cx="49.062454244565146" cy="8.56588703694311" r="31.283598268906953" fill="undefined"></circle> <circle cx="305.0624542445652" cy="8.56588703694311" r="31.283598268906953" fill="undefined"></circle> <circle cx="-206.93754575543485" cy="264.5658870369431" r="31.283598268906953" fill="undefined"></circle> <circle cx="49.062454244565146" cy="264.5658870369431" r="31.283598268906953" fill="undefined"></circle> <circle cx="305.0624542445652" cy="264.5658870369431" r="31.283598268906953" fill="undefined"></circle> <circle cx="-206.93754575543485" cy="520.5658870369431" r="31.283598268906953" fill="undefined"></circle> <circle cx="49.062454244565146" cy="520.5658870369431" r="31.283598268906953" fill="undefined"></circle> <circle cx="305.0624542445652" cy="520.5658870369431" r="31.283598268906953" fill="undefined"></circle> <circle cx="-78.7765662973654" cy="81.81834785132699" r="28.515193458175762" fill="undefined"></circle> <circle cx="177.2234337026346" cy="81.81834785132699" r="28.515193458175762" fill="undefined"></circle> <circle cx="433.22343370263457" cy="81.81834785132699" r="28.515193458175762" fill="undefined"></circle> <circle cx="-78.7765662973654" cy="337.81834785132696" r="28.515193458175762" fill="undefined"></circle> <circle cx="177.2234337026346" cy="337.81834785132696" r="28.515193458175762" fill="undefined"></circle> <circle cx="433.22343370263457" cy="337.81834785132696" r="28.515193458175762" fill="undefined"></circle> <circle cx="-78.7765662973654" cy="593.818347851327" r="28.515193458175762" fill="undefined"></circle> <circle cx="177.2234337026346" cy="593.818347851327" r="28.515193458175762" fill="undefined"></circle> <circle cx="433.22343370263457" cy="593.818347851327" r="28.515193458175762" fill="undefined"></circle> 
  <animateTransform attributeName="transform" type="translate" dur="3.3333333333333335s" repeatCount="indefinite" keyTimes="0;1" values="0 0;0 -256"></animateTransform>
</g><g>
  <circle cx="-29.386373498996164" cy="131.32246929425463" r="39.20431663915689" fill="undefined"></circle> <circle cx="226.61362650100384" cy="131.32246929425463" r="39.20431663915689" fill="undefined"></circle> <circle cx="482.61362650100386" cy="131.32246929425463" r="39.20431663915689" fill="undefined"></circle> <circle cx="-29.386373498996164" cy="387.32246929425463" r="39.20431663915689" fill="undefined"></circle> <circle cx="226.61362650100384" cy="387.32246929425463" r="39.20431663915689" fill="undefined"></circle> <circle cx="482.61362650100386" cy="387.32246929425463" r="39.20431663915689" fill="undefined"></circle> <circle cx="-29.386373498996164" cy="643.3224692942547" r="39.20431663915689" fill="undefined"></circle> <circle cx="226.61362650100384" cy="643.3224692942547" r="39.20431663915689" fill="undefined"></circle> <circle cx="482.61362650100386" cy="643.3224692942547" r="39.20431663915689" fill="undefined"></circle> <circle cx="-187.33967995565803" cy="156.47258139035935" r="14.71090374602775" fill="undefined"></circle> <circle cx="68.66032004434196" cy="156.47258139035935" r="14.71090374602775" fill="undefined"></circle> <circle cx="324.660320044342" cy="156.47258139035935" r="14.71090374602775" fill="undefined"></circle> <circle cx="-187.33967995565803" cy="412.4725813903593" r="14.71090374602775" fill="undefined"></circle> <circle cx="68.66032004434196" cy="412.4725813903593" r="14.71090374602775" fill="undefined"></circle> <circle cx="324.660320044342" cy="412.4725813903593" r="14.71090374602775" fill="undefined"></circle> <circle cx="-187.33967995565803" cy="668.4725813903593" r="14.71090374602775" fill="undefined"></circle> <circle cx="68.66032004434196" cy="668.4725813903593" r="14.71090374602775" fill="undefined"></circle> <circle cx="324.660320044342" cy="668.4725813903593" r="14.71090374602775" fill="undefined"></circle> <circle cx="-51.235520287408434" cy="-2.9651338821610693" r="31.058702647626088" fill="undefined"></circle> <circle cx="204.76447971259157" cy="-2.9651338821610693" r="31.058702647626088" fill="undefined"></circle> <circle cx="460.76447971259154" cy="-2.9651338821610693" r="31.058702647626088" fill="undefined"></circle> <circle cx="-51.235520287408434" cy="253.03486611783893" r="31.058702647626088" fill="undefined"></circle> <circle cx="204.76447971259157" cy="253.03486611783893" r="31.058702647626088" fill="undefined"></circle> <circle cx="460.76447971259154" cy="253.03486611783893" r="31.058702647626088" fill="undefined"></circle> <circle cx="-51.235520287408434" cy="509.03486611783893" r="31.058702647626088" fill="undefined"></circle> <circle cx="204.76447971259157" cy="509.03486611783893" r="31.058702647626088" fill="undefined"></circle> <circle cx="460.76447971259154" cy="509.03486611783893" r="31.058702647626088" fill="undefined"></circle> <circle cx="-51.235520287408434" cy="765.0348661178389" r="31.058702647626088" fill="undefined"></circle> <circle cx="204.76447971259157" cy="765.0348661178389" r="31.058702647626088" fill="undefined"></circle> <circle cx="460.76447971259154" cy="765.0348661178389" r="31.058702647626088" fill="undefined"></circle> <circle cx="-166.98815489574793" cy="114.12434911217437" r="43.070612672436425" fill="undefined"></circle> <circle cx="89.01184510425209" cy="114.12434911217437" r="43.070612672436425" fill="undefined"></circle> <circle cx="345.0118451042521" cy="114.12434911217437" r="43.070612672436425" fill="undefined"></circle> <circle cx="-166.98815489574793" cy="370.1243491121744" r="43.070612672436425" fill="undefined"></circle> <circle cx="89.01184510425209" cy="370.1243491121744" r="43.070612672436425" fill="undefined"></circle> <circle cx="345.0118451042521" cy="370.1243491121744" r="43.070612672436425" fill="undefined"></circle> <circle cx="-166.98815489574793" cy="626.1243491121744" r="43.070612672436425" fill="undefined"></circle> <circle cx="89.01184510425209" cy="626.1243491121744" r="43.070612672436425" fill="undefined"></circle> <circle cx="345.0118451042521" cy="626.1243491121744" r="43.070612672436425" fill="undefined"></circle> <circle cx="-40.92039061403523" cy="44.98436270358741" r="40.16352974324131" fill="undefined"></circle> <circle cx="215.07960938596477" cy="44.98436270358741" r="40.16352974324131" fill="undefined"></circle> <circle cx="471.0796093859648" cy="44.98436270358741" r="40.16352974324131" fill="undefined"></circle> <circle cx="-40.92039061403523" cy="300.9843627035874" r="40.16352974324131" fill="undefined"></circle> <circle cx="215.07960938596477" cy="300.9843627035874" r="40.16352974324131" fill="undefined"></circle> <circle cx="471.0796093859648" cy="300.9843627035874" r="40.16352974324131" fill="undefined"></circle> <circle cx="-40.92039061403523" cy="556.9843627035874" r="40.16352974324131" fill="undefined"></circle> <circle cx="215.07960938596477" cy="556.9843627035874" r="40.16352974324131" fill="undefined"></circle> <circle cx="471.0796093859648" cy="556.9843627035874" r="40.16352974324131" fill="undefined"></circle> <circle cx="-180.65452623590028" cy="168.40609318578262" r="27.892286378667865" fill="undefined"></circle> <circle cx="75.34547376409971" cy="168.40609318578262" r="27.892286378667865" fill="undefined"></circle> <circle cx="331.3454737640997" cy="168.40609318578262" r="27.892286378667865" fill="undefined"></circle> <circle cx="-180.65452623590028" cy="424.40609318578265" r="27.892286378667865" fill="undefined"></circle> <circle cx="75.34547376409971" cy="424.40609318578265" r="27.892286378667865" fill="undefined"></circle> <circle cx="331.3454737640997" cy="424.40609318578265" r="27.892286378667865" fill="undefined"></circle> <circle cx="-180.65452623590028" cy="680.4060931857827" r="27.892286378667865" fill="undefined"></circle> <circle cx="75.34547376409971" cy="680.4060931857827" r="27.892286378667865" fill="undefined"></circle> <circle cx="331.3454737640997" cy="680.4060931857827" r="27.892286378667865" fill="undefined"></circle> <circle cx="-178.5954649819534" cy="37.99731874098613" r="34.69131515573263" fill="undefined"></circle> <circle cx="77.4045350180466" cy="37.99731874098613" r="34.69131515573263" fill="undefined"></circle> <circle cx="333.4045350180466" cy="37.99731874098613" r="34.69131515573263" fill="undefined"></circle> <circle cx="-178.5954649819534" cy="293.99731874098615" r="34.69131515573263" fill="undefined"></circle> <circle cx="77.4045350180466" cy="293.99731874098615" r="34.69131515573263" fill="undefined"></circle> <circle cx="333.4045350180466" cy="293.99731874098615" r="34.69131515573263" fill="undefined"></circle> <circle cx="-178.5954649819534" cy="549.9973187409861" r="34.69131515573263" fill="undefined"></circle> <circle cx="77.4045350180466" cy="549.9973187409861" r="34.69131515573263" fill="undefined"></circle> <circle cx="333.4045350180466" cy="549.9973187409861" r="34.69131515573263" fill="undefined"></circle> 
  <animateTransform attributeName="transform" type="translate" dur="1.6666666666666667s" repeatCount="indefinite" keyTimes="0;1" values="0 0;0 -256"></animateTransform>
</g><g>
  <circle cx="-74.53702658620585" cy="71.10164141944101" r="37.88130502931412" fill="undefined"></circle> <circle cx="181.46297341379415" cy="71.10164141944101" r="37.88130502931412" fill="undefined"></circle> <circle cx="437.46297341379415" cy="71.10164141944101" r="37.88130502931412" fill="undefined"></circle> <circle cx="-74.53702658620585" cy="327.101641419441" r="37.88130502931412" fill="undefined"></circle> <circle cx="181.46297341379415" cy="327.101641419441" r="37.88130502931412" fill="undefined"></circle> <circle cx="437.46297341379415" cy="327.101641419441" r="37.88130502931412" fill="undefined"></circle> <circle cx="-74.53702658620585" cy="583.101641419441" r="37.88130502931412" fill="undefined"></circle> <circle cx="181.46297341379415" cy="583.101641419441" r="37.88130502931412" fill="undefined"></circle> <circle cx="437.46297341379415" cy="583.101641419441" r="37.88130502931412" fill="undefined"></circle> <circle cx="-254.2162758280446" cy="170.66852281987823" r="9.811812603557133" fill="undefined"></circle> <circle cx="1.783724171955417" cy="170.66852281987823" r="9.811812603557133" fill="undefined"></circle> <circle cx="257.78372417195544" cy="170.66852281987823" r="9.811812603557133" fill="undefined"></circle> <circle cx="-254.2162758280446" cy="426.66852281987826" r="9.811812603557133" fill="undefined"></circle> <circle cx="1.783724171955417" cy="426.66852281987826" r="9.811812603557133" fill="undefined"></circle> <circle cx="257.78372417195544" cy="426.66852281987826" r="9.811812603557133" fill="undefined"></circle> <circle cx="-254.2162758280446" cy="682.6685228198783" r="9.811812603557133" fill="undefined"></circle> <circle cx="1.783724171955417" cy="682.6685228198783" r="9.811812603557133" fill="undefined"></circle> <circle cx="257.78372417195544" cy="682.6685228198783" r="9.811812603557133" fill="undefined"></circle> <circle cx="-188.26020488300372" cy="124.92891509237981" r="22.322251957603978" fill="undefined"></circle> <circle cx="67.73979511699629" cy="124.92891509237981" r="22.322251957603978" fill="undefined"></circle> <circle cx="323.7397951169963" cy="124.92891509237981" r="22.322251957603978" fill="undefined"></circle> <circle cx="-188.26020488300372" cy="380.92891509237984" r="22.322251957603978" fill="undefined"></circle> <circle cx="67.73979511699629" cy="380.92891509237984" r="22.322251957603978" fill="undefined"></circle> <circle cx="323.7397951169963" cy="380.92891509237984" r="22.322251957603978" fill="undefined"></circle> <circle cx="-188.26020488300372" cy="636.9289150923798" r="22.322251957603978" fill="undefined"></circle> <circle cx="67.73979511699629" cy="636.9289150923798" r="22.322251957603978" fill="undefined"></circle> <circle cx="323.7397951169963" cy="636.9289150923798" r="22.322251957603978" fill="undefined"></circle> <circle cx="-79.89289584830485" cy="0.3181594229751688" r="25.142619194561963" fill="undefined"></circle> <circle cx="176.10710415169515" cy="0.3181594229751688" r="25.142619194561963" fill="undefined"></circle> <circle cx="432.1071041516951" cy="0.3181594229751688" r="25.142619194561963" fill="undefined"></circle> <circle cx="-79.89289584830485" cy="256.31815942297516" r="25.142619194561963" fill="undefined"></circle> <circle cx="176.10710415169515" cy="256.31815942297516" r="25.142619194561963" fill="undefined"></circle> <circle cx="432.1071041516951" cy="256.31815942297516" r="25.142619194561963" fill="undefined"></circle> <circle cx="-79.89289584830485" cy="512.3181594229752" r="25.142619194561963" fill="undefined"></circle> <circle cx="176.10710415169515" cy="512.3181594229752" r="25.142619194561963" fill="undefined"></circle> <circle cx="432.1071041516951" cy="512.3181594229752" r="25.142619194561963" fill="undefined"></circle> <circle cx="-75.60743134944283" cy="210.4582832573296" r="21.94335393727361" fill="undefined"></circle> <circle cx="180.39256865055717" cy="210.4582832573296" r="21.94335393727361" fill="undefined"></circle> <circle cx="436.39256865055717" cy="210.4582832573296" r="21.94335393727361" fill="undefined"></circle> <circle cx="-75.60743134944283" cy="466.45828325732964" r="21.94335393727361" fill="undefined"></circle> <circle cx="180.39256865055717" cy="466.45828325732964" r="21.94335393727361" fill="undefined"></circle> <circle cx="436.39256865055717" cy="466.45828325732964" r="21.94335393727361" fill="undefined"></circle> <circle cx="-75.60743134944283" cy="722.4582832573296" r="21.94335393727361" fill="undefined"></circle> <circle cx="180.39256865055717" cy="722.4582832573296" r="21.94335393727361" fill="undefined"></circle> <circle cx="436.39256865055717" cy="722.4582832573296" r="21.94335393727361" fill="undefined"></circle> <circle cx="-198.99417168307855" cy="85.47826053372661" r="41.725591678506774" fill="undefined"></circle> <circle cx="57.00582831692146" cy="85.47826053372661" r="41.725591678506774" fill="undefined"></circle> <circle cx="313.00582831692145" cy="85.47826053372661" r="41.725591678506774" fill="undefined"></circle> <circle cx="-198.99417168307855" cy="341.4782605337266" r="41.725591678506774" fill="undefined"></circle> <circle cx="57.00582831692146" cy="341.4782605337266" r="41.725591678506774" fill="undefined"></circle> <circle cx="313.00582831692145" cy="341.4782605337266" r="41.725591678506774" fill="undefined"></circle> <circle cx="-198.99417168307855" cy="597.4782605337266" r="41.725591678506774" fill="undefined"></circle> <circle cx="57.00582831692146" cy="597.4782605337266" r="41.725591678506774" fill="undefined"></circle> <circle cx="313.00582831692145" cy="597.4782605337266" r="41.725591678506774" fill="undefined"></circle> 
  <animateTransform attributeName="transform" type="translate" dur="1.1111111111111112s" repeatCount="indefinite" keyTimes="0;1" values="0 0;0 -256"></animateTransform>
</g></g></g><filter id="f">
<feDiffuseLighting lighting-color="#202e45" surfaceScale="0.5" result="light">
  <feDistantLight azimuth="45" elevation="60"></feDistantLight>
</feDiffuseLighting>
</filter></g><style type="text/css"></style><!-- [ldio] generated by https://loading.io --></svg>