<svg xmlns="http://www.w3.org/2000/svg" xmlns:xlink="http://www.w3.org/1999/xlink" viewBox="0 0 164 164" preserveAspectRatio="xMidYMid" width="164" height="164" style="shape-rendering: auto; background: rgb(53, 0, 95);"><g id="pattern-group" transform="scale(0.640625)"><g>
  <line x1="238.20218752575056" x2="229.01029185575374" y1="140.3540872881404" y2="149.54598295813722" stroke-width="5" stroke="#009bd2" stroke-linecap="round"></line><line x1="238.20218752575056" x2="229.01029185575374" y1="-371.64591271185964" y2="-362.4540170418628" stroke-width="5" stroke="#009bd2" stroke-linecap="round"></line><line x1="494.20218752575056" x2="485.01029185575374" y1="-371.64591271185964" y2="-362.4540170418628" stroke-width="5" stroke="#009bd2" stroke-linecap="round"></line><line x1="750.2021875257506" x2="741.0102918557537" y1="-371.64591271185964" y2="-362.4540170418628" stroke-width="5" stroke="#009bd2" stroke-linecap="round"></line><line x1="238.20218752575056" x2="229.01029185575374" y1="-115.64591271185961" y2="-106.45401704186278" stroke-width="5" stroke="#009bd2" stroke-linecap="round"></line><line x1="494.20218752575056" x2="485.01029185575374" y1="-115.64591271185961" y2="-106.45401704186278" stroke-width="5" stroke="#009bd2" stroke-linecap="round"></line><line x1="750.2021875257506" x2="741.0102918557537" y1="-115.64591271185961" y2="-106.45401704186278" stroke-width="5" stroke="#009bd2" stroke-linecap="round"></line><line x1="238.20218752575056" x2="229.01029185575374" y1="140.3540872881404" y2="149.54598295813722" stroke-width="5" stroke="#009bd2" stroke-linecap="round"></line><line x1="494.20218752575056" x2="485.01029185575374" y1="140.3540872881404" y2="149.54598295813722" stroke-width="5" stroke="#009bd2" stroke-linecap="round"></line><line x1="750.2021875257506" x2="741.0102918557537" y1="140.3540872881404" y2="149.54598295813722" stroke-width="5" stroke="#009bd2" stroke-linecap="round"></line><line x1="126.68989201328729" x2="103.38884696753847" y1="160.3075375644713" y2="183.6085826102201" stroke-width="5" stroke="#009bd2" stroke-linecap="round"></line><line x1="126.68989201328729" x2="103.38884696753847" y1="-351.6924624355287" y2="-328.3914173897799" stroke-width="5" stroke="#009bd2" stroke-linecap="round"></line><line x1="382.6898920132873" x2="359.3888469675385" y1="-351.6924624355287" y2="-328.3914173897799" stroke-width="5" stroke="#009bd2" stroke-linecap="round"></line><line x1="638.6898920132872" x2="615.3888469675385" y1="-351.6924624355287" y2="-328.3914173897799" stroke-width="5" stroke="#009bd2" stroke-linecap="round"></line><line x1="126.68989201328729" x2="103.38884696753847" y1="-95.69246243552871" y2="-72.39141738977989" stroke-width="5" stroke="#009bd2" stroke-linecap="round"></line><line x1="382.6898920132873" x2="359.3888469675385" y1="-95.69246243552871" y2="-72.39141738977989" stroke-width="5" stroke="#009bd2" stroke-linecap="round"></line><line x1="638.6898920132872" x2="615.3888469675385" y1="-95.69246243552871" y2="-72.39141738977989" stroke-width="5" stroke="#009bd2" stroke-linecap="round"></line><line x1="126.68989201328729" x2="103.38884696753847" y1="160.3075375644713" y2="183.6085826102201" stroke-width="5" stroke="#009bd2" stroke-linecap="round"></line><line x1="382.6898920132873" x2="359.3888469675385" y1="160.3075375644713" y2="183.6085826102201" stroke-width="5" stroke="#009bd2" stroke-linecap="round"></line><line x1="638.6898920132872" x2="615.3888469675385" y1="160.3075375644713" y2="183.6085826102201" stroke-width="5" stroke="#009bd2" stroke-linecap="round"></line><line x1="63.398415358490546" x2="42.98334436059101" y1="23.6533970719997" y2="44.06846806989923" stroke-width="5" stroke="#009bd2" stroke-linecap="round"></line><line x1="63.398415358490546" x2="42.98334436059101" y1="-488.3466029280003" y2="-467.9315319301008" stroke-width="5" stroke="#009bd2" stroke-linecap="round"></line><line x1="319.3984153584905" x2="298.983344360591" y1="-488.3466029280003" y2="-467.9315319301008" stroke-width="5" stroke="#009bd2" stroke-linecap="round"></line><line x1="575.3984153584905" x2="554.983344360591" y1="-488.3466029280003" y2="-467.9315319301008" stroke-width="5" stroke="#009bd2" stroke-linecap="round"></line><line x1="63.398415358490546" x2="42.98334436059101" y1="-232.3466029280003" y2="-211.93153193010076" stroke-width="5" stroke="#009bd2" stroke-linecap="round"></line><line x1="319.3984153584905" x2="298.983344360591" y1="-232.3466029280003" y2="-211.93153193010076" stroke-width="5" stroke="#009bd2" stroke-linecap="round"></line><line x1="575.3984153584905" x2="554.983344360591" y1="-232.3466029280003" y2="-211.93153193010076" stroke-width="5" stroke="#009bd2" stroke-linecap="round"></line><line x1="63.398415358490546" x2="42.98334436059101" y1="23.6533970719997" y2="44.06846806989923" stroke-width="5" stroke="#009bd2" stroke-linecap="round"></line><line x1="319.3984153584905" x2="298.983344360591" y1="23.6533970719997" y2="44.06846806989923" stroke-width="5" stroke="#009bd2" stroke-linecap="round"></line><line x1="575.3984153584905" x2="554.983344360591" y1="23.6533970719997" y2="44.06846806989923" stroke-width="5" stroke="#009bd2" stroke-linecap="round"></line><line x1="235.6388153024498" x2="210.66894960637086" y1="162.65355047436657" y2="187.62341617044552" stroke-width="5" stroke="#009bd2" stroke-linecap="round"></line><line x1="235.6388153024498" x2="210.66894960637086" y1="-349.34644952563343" y2="-324.3765838295545" stroke-width="5" stroke="#009bd2" stroke-linecap="round"></line><line x1="491.6388153024498" x2="466.66894960637086" y1="-349.34644952563343" y2="-324.3765838295545" stroke-width="5" stroke="#009bd2" stroke-linecap="round"></line><line x1="747.6388153024498" x2="722.6689496063709" y1="-349.34644952563343" y2="-324.3765838295545" stroke-width="5" stroke="#009bd2" stroke-linecap="round"></line><line x1="235.6388153024498" x2="210.66894960637086" y1="-93.34644952563343" y2="-68.37658382955448" stroke-width="5" stroke="#009bd2" stroke-linecap="round"></line><line x1="491.6388153024498" x2="466.66894960637086" y1="-93.34644952563343" y2="-68.37658382955448" stroke-width="5" stroke="#009bd2" stroke-linecap="round"></line><line x1="747.6388153024498" x2="722.6689496063709" y1="-93.34644952563343" y2="-68.37658382955448" stroke-width="5" stroke="#009bd2" stroke-linecap="round"></line><line x1="235.6388153024498" x2="210.66894960637086" y1="162.65355047436657" y2="187.62341617044552" stroke-width="5" stroke="#009bd2" stroke-linecap="round"></line><line x1="491.6388153024498" x2="466.66894960637086" y1="162.65355047436657" y2="187.62341617044552" stroke-width="5" stroke="#009bd2" stroke-linecap="round"></line><line x1="747.6388153024498" x2="722.6689496063709" y1="162.65355047436657" y2="187.62341617044552" stroke-width="5" stroke="#009bd2" stroke-linecap="round"></line><line x1="56.0093311096675" x2="35.760819026957265" y1="164.20053104485493" y2="184.44904312756518" stroke-width="5" stroke="#009bd2" stroke-linecap="round"></line><line x1="56.0093311096675" x2="35.760819026957265" y1="-347.7994689551451" y2="-327.5509568724348" stroke-width="5" stroke="#009bd2" stroke-linecap="round"></line><line x1="312.0093311096675" x2="291.7608190269573" y1="-347.7994689551451" y2="-327.5509568724348" stroke-width="5" stroke="#009bd2" stroke-linecap="round"></line><line x1="568.0093311096675" x2="547.7608190269573" y1="-347.7994689551451" y2="-327.5509568724348" stroke-width="5" stroke="#009bd2" stroke-linecap="round"></line><line x1="56.0093311096675" x2="35.760819026957265" y1="-91.79946895514507" y2="-71.55095687243482" stroke-width="5" stroke="#009bd2" stroke-linecap="round"></line><line x1="312.0093311096675" x2="291.7608190269573" y1="-91.79946895514507" y2="-71.55095687243482" stroke-width="5" stroke="#009bd2" stroke-linecap="round"></line><line x1="568.0093311096675" x2="547.7608190269573" y1="-91.79946895514507" y2="-71.55095687243482" stroke-width="5" stroke="#009bd2" stroke-linecap="round"></line><line x1="56.0093311096675" x2="35.760819026957265" y1="164.20053104485493" y2="184.44904312756518" stroke-width="5" stroke="#009bd2" stroke-linecap="round"></line><line x1="312.0093311096675" x2="291.7608190269573" y1="164.20053104485493" y2="184.44904312756518" stroke-width="5" stroke="#009bd2" stroke-linecap="round"></line><line x1="568.0093311096675" x2="547.7608190269573" y1="164.20053104485493" y2="184.44904312756518" stroke-width="5" stroke="#009bd2" stroke-linecap="round"></line><line x1="112.4084920762323" x2="83.17346528937529" y1="70.89391289066546" y2="100.12893967752248" stroke-width="5" stroke="#009bd2" stroke-linecap="round"></line><line x1="112.4084920762323" x2="83.17346528937529" y1="-441.10608710933457" y2="-411.87106032247755" stroke-width="5" stroke="#009bd2" stroke-linecap="round"></line><line x1="368.4084920762323" x2="339.17346528937526" y1="-441.10608710933457" y2="-411.87106032247755" stroke-width="5" stroke="#009bd2" stroke-linecap="round"></line><line x1="624.4084920762323" x2="595.1734652893753" y1="-441.10608710933457" y2="-411.87106032247755" stroke-width="5" stroke="#009bd2" stroke-linecap="round"></line><line x1="112.4084920762323" x2="83.17346528937529" y1="-185.10608710933454" y2="-155.87106032247752" stroke-width="5" stroke="#009bd2" stroke-linecap="round"></line><line x1="368.4084920762323" x2="339.17346528937526" y1="-185.10608710933454" y2="-155.87106032247752" stroke-width="5" stroke="#009bd2" stroke-linecap="round"></line><line x1="624.4084920762323" x2="595.1734652893753" y1="-185.10608710933454" y2="-155.87106032247752" stroke-width="5" stroke="#009bd2" stroke-linecap="round"></line><line x1="112.4084920762323" x2="83.17346528937529" y1="70.89391289066546" y2="100.12893967752248" stroke-width="5" stroke="#009bd2" stroke-linecap="round"></line><line x1="368.4084920762323" x2="339.17346528937526" y1="70.89391289066546" y2="100.12893967752248" stroke-width="5" stroke="#009bd2" stroke-linecap="round"></line><line x1="624.4084920762323" x2="595.1734652893753" y1="70.89391289066546" y2="100.12893967752248" stroke-width="5" stroke="#009bd2" stroke-linecap="round"></line><line x1="75.22864298373743" x2="53.8085267457131" y1="153.95357724985706" y2="175.37369348788138" stroke-width="5" stroke="#009bd2" stroke-linecap="round"></line><line x1="75.22864298373743" x2="53.8085267457131" y1="-358.04642275014294" y2="-336.6263065121186" stroke-width="5" stroke="#009bd2" stroke-linecap="round"></line><line x1="331.2286429837374" x2="309.8085267457131" y1="-358.04642275014294" y2="-336.6263065121186" stroke-width="5" stroke="#009bd2" stroke-linecap="round"></line><line x1="587.2286429837375" x2="565.8085267457132" y1="-358.04642275014294" y2="-336.6263065121186" stroke-width="5" stroke="#009bd2" stroke-linecap="round"></line><line x1="75.22864298373743" x2="53.8085267457131" y1="-102.04642275014294" y2="-80.62630651211862" stroke-width="5" stroke="#009bd2" stroke-linecap="round"></line><line x1="331.2286429837374" x2="309.8085267457131" y1="-102.04642275014294" y2="-80.62630651211862" stroke-width="5" stroke="#009bd2" stroke-linecap="round"></line><line x1="587.2286429837375" x2="565.8085267457132" y1="-102.04642275014294" y2="-80.62630651211862" stroke-width="5" stroke="#009bd2" stroke-linecap="round"></line><line x1="75.22864298373743" x2="53.8085267457131" y1="153.95357724985706" y2="175.37369348788138" stroke-width="5" stroke="#009bd2" stroke-linecap="round"></line><line x1="331.2286429837374" x2="309.8085267457131" y1="153.95357724985706" y2="175.37369348788138" stroke-width="5" stroke="#009bd2" stroke-linecap="round"></line><line x1="587.2286429837375" x2="565.8085267457132" y1="153.95357724985706" y2="175.37369348788138" stroke-width="5" stroke="#009bd2" stroke-linecap="round"></line><line x1="244.42698260445235" x2="220.0640327512865" y1="138.8931223178067" y2="163.25607217097254" stroke-width="5" stroke="#009bd2" stroke-linecap="round"></line><line x1="244.42698260445235" x2="220.0640327512865" y1="-373.10687768219327" y2="-348.7439278290275" stroke-width="5" stroke="#009bd2" stroke-linecap="round"></line><line x1="500.42698260445235" x2="476.0640327512865" y1="-373.10687768219327" y2="-348.7439278290275" stroke-width="5" stroke="#009bd2" stroke-linecap="round"></line><line x1="756.4269826044524" x2="732.0640327512865" y1="-373.10687768219327" y2="-348.7439278290275" stroke-width="5" stroke="#009bd2" stroke-linecap="round"></line><line x1="244.42698260445235" x2="220.0640327512865" y1="-117.1068776821933" y2="-92.74392782902746" stroke-width="5" stroke="#009bd2" stroke-linecap="round"></line><line x1="500.42698260445235" x2="476.0640327512865" y1="-117.1068776821933" y2="-92.74392782902746" stroke-width="5" stroke="#009bd2" stroke-linecap="round"></line><line x1="756.4269826044524" x2="732.0640327512865" y1="-117.1068776821933" y2="-92.74392782902746" stroke-width="5" stroke="#009bd2" stroke-linecap="round"></line><line x1="244.42698260445235" x2="220.0640327512865" y1="138.8931223178067" y2="163.25607217097254" stroke-width="5" stroke="#009bd2" stroke-linecap="round"></line><line x1="500.42698260445235" x2="476.0640327512865" y1="138.8931223178067" y2="163.25607217097254" stroke-width="5" stroke="#009bd2" stroke-linecap="round"></line><line x1="756.4269826044524" x2="732.0640327512865" y1="138.8931223178067" y2="163.25607217097254" stroke-width="5" stroke="#009bd2" stroke-linecap="round"></line><line x1="101.22744354076549" x2="75.92433163367686" y1="60.92367234690198" y2="86.22678425399062" stroke-width="5" stroke="#009bd2" stroke-linecap="round"></line><line x1="101.22744354076549" x2="75.92433163367686" y1="-451.076327653098" y2="-425.7732157460094" stroke-width="5" stroke="#009bd2" stroke-linecap="round"></line><line x1="357.2274435407655" x2="331.92433163367684" y1="-451.076327653098" y2="-425.7732157460094" stroke-width="5" stroke="#009bd2" stroke-linecap="round"></line><line x1="613.2274435407655" x2="587.9243316336768" y1="-451.076327653098" y2="-425.7732157460094" stroke-width="5" stroke="#009bd2" stroke-linecap="round"></line><line x1="101.22744354076549" x2="75.92433163367686" y1="-195.07632765309802" y2="-169.77321574600938" stroke-width="5" stroke="#009bd2" stroke-linecap="round"></line><line x1="357.2274435407655" x2="331.92433163367684" y1="-195.07632765309802" y2="-169.77321574600938" stroke-width="5" stroke="#009bd2" stroke-linecap="round"></line><line x1="613.2274435407655" x2="587.9243316336768" y1="-195.07632765309802" y2="-169.77321574600938" stroke-width="5" stroke="#009bd2" stroke-linecap="round"></line><line x1="101.22744354076549" x2="75.92433163367686" y1="60.92367234690198" y2="86.22678425399062" stroke-width="5" stroke="#009bd2" stroke-linecap="round"></line><line x1="357.2274435407655" x2="331.92433163367684" y1="60.92367234690198" y2="86.22678425399062" stroke-width="5" stroke="#009bd2" stroke-linecap="round"></line><line x1="613.2274435407655" x2="587.9243316336768" y1="60.92367234690198" y2="86.22678425399062" stroke-width="5" stroke="#009bd2" stroke-linecap="round"></line><line x1="45.878164634200445" x2="36.552002449859174" y1="107.8428750680262" y2="117.16903725236749" stroke-width="5" stroke="#009bd2" stroke-linecap="round"></line><line x1="45.878164634200445" x2="36.552002449859174" y1="-404.1571249319738" y2="-394.8309627476325" stroke-width="5" stroke="#009bd2" stroke-linecap="round"></line><line x1="301.87816463420046" x2="292.5520024498592" y1="-404.1571249319738" y2="-394.8309627476325" stroke-width="5" stroke="#009bd2" stroke-linecap="round"></line><line x1="557.8781646342004" x2="548.5520024498592" y1="-404.1571249319738" y2="-394.8309627476325" stroke-width="5" stroke="#009bd2" stroke-linecap="round"></line><line x1="45.878164634200445" x2="36.552002449859174" y1="-148.15712493197378" y2="-138.8309627476325" stroke-width="5" stroke="#009bd2" stroke-linecap="round"></line><line x1="301.87816463420046" x2="292.5520024498592" y1="-148.15712493197378" y2="-138.8309627476325" stroke-width="5" stroke="#009bd2" stroke-linecap="round"></line><line x1="557.8781646342004" x2="548.5520024498592" y1="-148.15712493197378" y2="-138.8309627476325" stroke-width="5" stroke="#009bd2" stroke-linecap="round"></line><line x1="45.878164634200445" x2="36.552002449859174" y1="107.8428750680262" y2="117.16903725236749" stroke-width="5" stroke="#009bd2" stroke-linecap="round"></line><line x1="301.87816463420046" x2="292.5520024498592" y1="107.8428750680262" y2="117.16903725236749" stroke-width="5" stroke="#009bd2" stroke-linecap="round"></line><line x1="557.8781646342004" x2="548.5520024498592" y1="107.8428750680262" y2="117.16903725236749" stroke-width="5" stroke="#009bd2" stroke-linecap="round"></line>
  <animateTransform attributeName="transform" type="translate" values="0 0;-256 256" keyTimes="0;1" repeatCount="indefinite" dur="1.1235955056179776s"></animateTransform>
</g><g>
  <line x1="129.7324839997012" x2="107.1409686627203" y1="45.61548553282677" y2="68.20700086980766" stroke-width="5" stroke="#43eaff" stroke-linecap="round"></line><line x1="129.7324839997012" x2="107.1409686627203" y1="-466.38451446717323" y2="-443.79299913019236" stroke-width="5" stroke="#43eaff" stroke-linecap="round"></line><line x1="385.73248399970123" x2="363.1409686627203" y1="-466.38451446717323" y2="-443.79299913019236" stroke-width="5" stroke="#43eaff" stroke-linecap="round"></line><line x1="641.7324839997012" x2="619.1409686627203" y1="-466.38451446717323" y2="-443.79299913019236" stroke-width="5" stroke="#43eaff" stroke-linecap="round"></line><line x1="129.7324839997012" x2="107.1409686627203" y1="-210.38451446717323" y2="-187.79299913019236" stroke-width="5" stroke="#43eaff" stroke-linecap="round"></line><line x1="385.73248399970123" x2="363.1409686627203" y1="-210.38451446717323" y2="-187.79299913019236" stroke-width="5" stroke="#43eaff" stroke-linecap="round"></line><line x1="641.7324839997012" x2="619.1409686627203" y1="-210.38451446717323" y2="-187.79299913019236" stroke-width="5" stroke="#43eaff" stroke-linecap="round"></line><line x1="129.7324839997012" x2="107.1409686627203" y1="45.61548553282677" y2="68.20700086980766" stroke-width="5" stroke="#43eaff" stroke-linecap="round"></line><line x1="385.73248399970123" x2="363.1409686627203" y1="45.61548553282677" y2="68.20700086980766" stroke-width="5" stroke="#43eaff" stroke-linecap="round"></line><line x1="641.7324839997012" x2="619.1409686627203" y1="45.61548553282677" y2="68.20700086980766" stroke-width="5" stroke="#43eaff" stroke-linecap="round"></line><line x1="49.66138211899738" x2="29.462106687691076" y1="93.05336734120121" y2="113.2526427725075" stroke-width="5" stroke="#43eaff" stroke-linecap="round"></line><line x1="49.66138211899738" x2="29.462106687691076" y1="-418.94663265879876" y2="-398.7473572274925" stroke-width="5" stroke="#43eaff" stroke-linecap="round"></line><line x1="305.6613821189974" x2="285.46210668769106" y1="-418.94663265879876" y2="-398.7473572274925" stroke-width="5" stroke="#43eaff" stroke-linecap="round"></line><line x1="561.6613821189974" x2="541.4621066876911" y1="-418.94663265879876" y2="-398.7473572274925" stroke-width="5" stroke="#43eaff" stroke-linecap="round"></line><line x1="49.66138211899738" x2="29.462106687691076" y1="-162.9466326587988" y2="-142.7473572274925" stroke-width="5" stroke="#43eaff" stroke-linecap="round"></line><line x1="305.6613821189974" x2="285.46210668769106" y1="-162.9466326587988" y2="-142.7473572274925" stroke-width="5" stroke="#43eaff" stroke-linecap="round"></line><line x1="561.6613821189974" x2="541.4621066876911" y1="-162.9466326587988" y2="-142.7473572274925" stroke-width="5" stroke="#43eaff" stroke-linecap="round"></line><line x1="49.66138211899738" x2="29.462106687691076" y1="93.05336734120121" y2="113.2526427725075" stroke-width="5" stroke="#43eaff" stroke-linecap="round"></line><line x1="305.6613821189974" x2="285.46210668769106" y1="93.05336734120121" y2="113.2526427725075" stroke-width="5" stroke="#43eaff" stroke-linecap="round"></line><line x1="561.6613821189974" x2="541.4621066876911" y1="93.05336734120121" y2="113.2526427725075" stroke-width="5" stroke="#43eaff" stroke-linecap="round"></line><line x1="254.5627281125569" x2="236.9636819068582" y1="244.13979402519607" y2="261.73884023089477" stroke-width="5" stroke="#43eaff" stroke-linecap="round"></line><line x1="254.5627281125569" x2="236.9636819068582" y1="-267.86020597480393" y2="-250.26115976910523" stroke-width="5" stroke="#43eaff" stroke-linecap="round"></line><line x1="510.5627281125569" x2="492.9636819068582" y1="-267.86020597480393" y2="-250.26115976910523" stroke-width="5" stroke="#43eaff" stroke-linecap="round"></line><line x1="766.5627281125569" x2="748.9636819068583" y1="-267.86020597480393" y2="-250.26115976910523" stroke-width="5" stroke="#43eaff" stroke-linecap="round"></line><line x1="254.5627281125569" x2="236.9636819068582" y1="-11.860205974803932" y2="5.738840230894766" stroke-width="5" stroke="#43eaff" stroke-linecap="round"></line><line x1="510.5627281125569" x2="492.9636819068582" y1="-11.860205974803932" y2="5.738840230894766" stroke-width="5" stroke="#43eaff" stroke-linecap="round"></line><line x1="766.5627281125569" x2="748.9636819068583" y1="-11.860205974803932" y2="5.738840230894766" stroke-width="5" stroke="#43eaff" stroke-linecap="round"></line><line x1="254.5627281125569" x2="236.9636819068582" y1="244.13979402519607" y2="261.73884023089477" stroke-width="5" stroke="#43eaff" stroke-linecap="round"></line><line x1="510.5627281125569" x2="492.9636819068582" y1="244.13979402519607" y2="261.73884023089477" stroke-width="5" stroke="#43eaff" stroke-linecap="round"></line><line x1="766.5627281125569" x2="748.9636819068583" y1="244.13979402519607" y2="261.73884023089477" stroke-width="5" stroke="#43eaff" stroke-linecap="round"></line><line x1="77.14746063525871" x2="55.803511870202925" y1="187.83520106956132" y2="209.17914983461708" stroke-width="5" stroke="#43eaff" stroke-linecap="round"></line><line x1="77.14746063525871" x2="55.803511870202925" y1="-324.1647989304387" y2="-302.8208501653829" stroke-width="5" stroke="#43eaff" stroke-linecap="round"></line><line x1="333.1474606352587" x2="311.8035118702029" y1="-324.1647989304387" y2="-302.8208501653829" stroke-width="5" stroke="#43eaff" stroke-linecap="round"></line><line x1="589.1474606352588" x2="567.8035118702029" y1="-324.1647989304387" y2="-302.8208501653829" stroke-width="5" stroke="#43eaff" stroke-linecap="round"></line><line x1="77.14746063525871" x2="55.803511870202925" y1="-68.16479893043868" y2="-46.82085016538292" stroke-width="5" stroke="#43eaff" stroke-linecap="round"></line><line x1="333.1474606352587" x2="311.8035118702029" y1="-68.16479893043868" y2="-46.82085016538292" stroke-width="5" stroke="#43eaff" stroke-linecap="round"></line><line x1="589.1474606352588" x2="567.8035118702029" y1="-68.16479893043868" y2="-46.82085016538292" stroke-width="5" stroke="#43eaff" stroke-linecap="round"></line><line x1="77.14746063525871" x2="55.803511870202925" y1="187.83520106956132" y2="209.17914983461708" stroke-width="5" stroke="#43eaff" stroke-linecap="round"></line><line x1="333.1474606352587" x2="311.8035118702029" y1="187.83520106956132" y2="209.17914983461708" stroke-width="5" stroke="#43eaff" stroke-linecap="round"></line><line x1="589.1474606352588" x2="567.8035118702029" y1="187.83520106956132" y2="209.17914983461708" stroke-width="5" stroke="#43eaff" stroke-linecap="round"></line><line x1="48.553626275709526" x2="36.515711089161364" y1="227.8425327578303" y2="239.88044794437846" stroke-width="5" stroke="#43eaff" stroke-linecap="round"></line><line x1="48.553626275709526" x2="36.515711089161364" y1="-284.1574672421697" y2="-272.1195520556215" stroke-width="5" stroke="#43eaff" stroke-linecap="round"></line><line x1="304.5536262757095" x2="292.51571108916136" y1="-284.1574672421697" y2="-272.1195520556215" stroke-width="5" stroke="#43eaff" stroke-linecap="round"></line><line x1="560.5536262757096" x2="548.5157110891614" y1="-284.1574672421697" y2="-272.1195520556215" stroke-width="5" stroke="#43eaff" stroke-linecap="round"></line><line x1="48.553626275709526" x2="36.515711089161364" y1="-28.1574672421697" y2="-16.11955205562154" stroke-width="5" stroke="#43eaff" stroke-linecap="round"></line><line x1="304.5536262757095" x2="292.51571108916136" y1="-28.1574672421697" y2="-16.11955205562154" stroke-width="5" stroke="#43eaff" stroke-linecap="round"></line><line x1="560.5536262757096" x2="548.5157110891614" y1="-28.1574672421697" y2="-16.11955205562154" stroke-width="5" stroke="#43eaff" stroke-linecap="round"></line><line x1="48.553626275709526" x2="36.515711089161364" y1="227.8425327578303" y2="239.88044794437846" stroke-width="5" stroke="#43eaff" stroke-linecap="round"></line><line x1="304.5536262757095" x2="292.51571108916136" y1="227.8425327578303" y2="239.88044794437846" stroke-width="5" stroke="#43eaff" stroke-linecap="round"></line><line x1="560.5536262757096" x2="548.5157110891614" y1="227.8425327578303" y2="239.88044794437846" stroke-width="5" stroke="#43eaff" stroke-linecap="round"></line><line x1="138.59176945962204" x2="128.5317776412405" y1="210.65372744062685" y2="220.7137192590084" stroke-width="5" stroke="#43eaff" stroke-linecap="round"></line><line x1="138.59176945962204" x2="128.5317776412405" y1="-301.3462725593731" y2="-291.28628074099163" stroke-width="5" stroke="#43eaff" stroke-linecap="round"></line><line x1="394.591769459622" x2="384.5317776412405" y1="-301.3462725593731" y2="-291.28628074099163" stroke-width="5" stroke="#43eaff" stroke-linecap="round"></line><line x1="650.591769459622" x2="640.5317776412405" y1="-301.3462725593731" y2="-291.28628074099163" stroke-width="5" stroke="#43eaff" stroke-linecap="round"></line><line x1="138.59176945962204" x2="128.5317776412405" y1="-45.34627255937315" y2="-35.2862807409916" stroke-width="5" stroke="#43eaff" stroke-linecap="round"></line><line x1="394.591769459622" x2="384.5317776412405" y1="-45.34627255937315" y2="-35.2862807409916" stroke-width="5" stroke="#43eaff" stroke-linecap="round"></line><line x1="650.591769459622" x2="640.5317776412405" y1="-45.34627255937315" y2="-35.2862807409916" stroke-width="5" stroke="#43eaff" stroke-linecap="round"></line><line x1="138.59176945962204" x2="128.5317776412405" y1="210.65372744062685" y2="220.7137192590084" stroke-width="5" stroke="#43eaff" stroke-linecap="round"></line><line x1="394.591769459622" x2="384.5317776412405" y1="210.65372744062685" y2="220.7137192590084" stroke-width="5" stroke="#43eaff" stroke-linecap="round"></line><line x1="650.591769459622" x2="640.5317776412405" y1="210.65372744062685" y2="220.7137192590084" stroke-width="5" stroke="#43eaff" stroke-linecap="round"></line><line x1="28.163069004115318" x2="10.169080723391343" y1="170.38782236579897" y2="188.38181064652292" stroke-width="5" stroke="#43eaff" stroke-linecap="round"></line><line x1="28.163069004115318" x2="10.169080723391343" y1="-341.61217763420103" y2="-323.6181893534771" stroke-width="5" stroke="#43eaff" stroke-linecap="round"></line><line x1="284.1630690041153" x2="266.16908072339135" y1="-341.61217763420103" y2="-323.6181893534771" stroke-width="5" stroke="#43eaff" stroke-linecap="round"></line><line x1="540.1630690041153" x2="522.1690807233913" y1="-341.61217763420103" y2="-323.6181893534771" stroke-width="5" stroke="#43eaff" stroke-linecap="round"></line><line x1="28.163069004115318" x2="10.169080723391343" y1="-85.61217763420103" y2="-67.61818935347708" stroke-width="5" stroke="#43eaff" stroke-linecap="round"></line><line x1="284.1630690041153" x2="266.16908072339135" y1="-85.61217763420103" y2="-67.61818935347708" stroke-width="5" stroke="#43eaff" stroke-linecap="round"></line><line x1="540.1630690041153" x2="522.1690807233913" y1="-85.61217763420103" y2="-67.61818935347708" stroke-width="5" stroke="#43eaff" stroke-linecap="round"></line><line x1="28.163069004115318" x2="10.169080723391343" y1="170.38782236579897" y2="188.38181064652292" stroke-width="5" stroke="#43eaff" stroke-linecap="round"></line><line x1="284.1630690041153" x2="266.16908072339135" y1="170.38782236579897" y2="188.38181064652292" stroke-width="5" stroke="#43eaff" stroke-linecap="round"></line><line x1="540.1630690041153" x2="522.1690807233913" y1="170.38782236579897" y2="188.38181064652292" stroke-width="5" stroke="#43eaff" stroke-linecap="round"></line><line x1="246.61074862906833" x2="224.40741076281756" y1="2.121886757777075" y2="24.32522462402786" stroke-width="5" stroke="#43eaff" stroke-linecap="round"></line><line x1="246.61074862906833" x2="224.40741076281756" y1="-509.8781132422229" y2="-487.67477537597216" stroke-width="5" stroke="#43eaff" stroke-linecap="round"></line><line x1="502.6107486290683" x2="480.40741076281756" y1="-509.8781132422229" y2="-487.67477537597216" stroke-width="5" stroke="#43eaff" stroke-linecap="round"></line><line x1="758.6107486290683" x2="736.4074107628176" y1="-509.8781132422229" y2="-487.67477537597216" stroke-width="5" stroke="#43eaff" stroke-linecap="round"></line><line x1="246.61074862906833" x2="224.40741076281756" y1="-253.87811324222292" y2="-231.67477537597213" stroke-width="5" stroke="#43eaff" stroke-linecap="round"></line><line x1="502.6107486290683" x2="480.40741076281756" y1="-253.87811324222292" y2="-231.67477537597213" stroke-width="5" stroke="#43eaff" stroke-linecap="round"></line><line x1="758.6107486290683" x2="736.4074107628176" y1="-253.87811324222292" y2="-231.67477537597213" stroke-width="5" stroke="#43eaff" stroke-linecap="round"></line><line x1="246.61074862906833" x2="224.40741076281756" y1="2.121886757777075" y2="24.32522462402786" stroke-width="5" stroke="#43eaff" stroke-linecap="round"></line><line x1="502.6107486290683" x2="480.40741076281756" y1="2.121886757777075" y2="24.32522462402786" stroke-width="5" stroke="#43eaff" stroke-linecap="round"></line><line x1="758.6107486290683" x2="736.4074107628176" y1="2.121886757777075" y2="24.32522462402786" stroke-width="5" stroke="#43eaff" stroke-linecap="round"></line><line x1="268.2540120991022" x2="240.1949003068902" y1="164.8531955459308" y2="192.91230733814282" stroke-width="5" stroke="#43eaff" stroke-linecap="round"></line><line x1="268.2540120991022" x2="240.1949003068902" y1="-347.1468044540692" y2="-319.0876926618572" stroke-width="5" stroke="#43eaff" stroke-linecap="round"></line><line x1="524.2540120991023" x2="496.1949003068902" y1="-347.1468044540692" y2="-319.0876926618572" stroke-width="5" stroke="#43eaff" stroke-linecap="round"></line><line x1="780.2540120991023" x2="752.1949003068902" y1="-347.1468044540692" y2="-319.0876926618572" stroke-width="5" stroke="#43eaff" stroke-linecap="round"></line><line x1="268.2540120991022" x2="240.1949003068902" y1="-91.14680445406921" y2="-63.087692661857176" stroke-width="5" stroke="#43eaff" stroke-linecap="round"></line><line x1="524.2540120991023" x2="496.1949003068902" y1="-91.14680445406921" y2="-63.087692661857176" stroke-width="5" stroke="#43eaff" stroke-linecap="round"></line><line x1="780.2540120991023" x2="752.1949003068902" y1="-91.14680445406921" y2="-63.087692661857176" stroke-width="5" stroke="#43eaff" stroke-linecap="round"></line><line x1="268.2540120991022" x2="240.1949003068902" y1="164.8531955459308" y2="192.91230733814282" stroke-width="5" stroke="#43eaff" stroke-linecap="round"></line><line x1="524.2540120991023" x2="496.1949003068902" y1="164.8531955459308" y2="192.91230733814282" stroke-width="5" stroke="#43eaff" stroke-linecap="round"></line><line x1="780.2540120991023" x2="752.1949003068902" y1="164.8531955459308" y2="192.91230733814282" stroke-width="5" stroke="#43eaff" stroke-linecap="round"></line><line x1="12.254012099102226" x2="-15.80509969310981" y1="164.8531955459308" y2="192.91230733814282" stroke-width="5" stroke="#43eaff" stroke-linecap="round"></line><line x1="148.9918424577421" x2="141.27054208864803" y1="33.94044721953736" y2="41.66174758863147" stroke-width="5" stroke="#43eaff" stroke-linecap="round"></line><line x1="148.9918424577421" x2="141.27054208864803" y1="-478.05955278046264" y2="-470.33825241136856" stroke-width="5" stroke="#43eaff" stroke-linecap="round"></line><line x1="404.9918424577421" x2="397.270542088648" y1="-478.05955278046264" y2="-470.33825241136856" stroke-width="5" stroke="#43eaff" stroke-linecap="round"></line><line x1="660.9918424577421" x2="653.270542088648" y1="-478.05955278046264" y2="-470.33825241136856" stroke-width="5" stroke="#43eaff" stroke-linecap="round"></line><line x1="148.9918424577421" x2="141.27054208864803" y1="-222.05955278046264" y2="-214.33825241136853" stroke-width="5" stroke="#43eaff" stroke-linecap="round"></line><line x1="404.9918424577421" x2="397.270542088648" y1="-222.05955278046264" y2="-214.33825241136853" stroke-width="5" stroke="#43eaff" stroke-linecap="round"></line><line x1="660.9918424577421" x2="653.270542088648" y1="-222.05955278046264" y2="-214.33825241136853" stroke-width="5" stroke="#43eaff" stroke-linecap="round"></line><line x1="148.9918424577421" x2="141.27054208864803" y1="33.94044721953736" y2="41.66174758863147" stroke-width="5" stroke="#43eaff" stroke-linecap="round"></line><line x1="404.9918424577421" x2="397.270542088648" y1="33.94044721953736" y2="41.66174758863147" stroke-width="5" stroke="#43eaff" stroke-linecap="round"></line><line x1="660.9918424577421" x2="653.270542088648" y1="33.94044721953736" y2="41.66174758863147" stroke-width="5" stroke="#43eaff" stroke-linecap="round"></line>
  <animateTransform attributeName="transform" type="translate" values="0 0;-256 256" keyTimes="0;1" repeatCount="indefinite" dur="0.5617977528089888s"></animateTransform>
</g><g>
  <line x1="127.07653208014642" x2="113.20505624064577" y1="11.143686306180566" y2="25.0151621456812" stroke-width="5" stroke="#6bdbe9" stroke-linecap="round"></line><line x1="127.07653208014642" x2="113.20505624064577" y1="-500.85631369381946" y2="-486.9848378543188" stroke-width="5" stroke="#6bdbe9" stroke-linecap="round"></line><line x1="383.0765320801464" x2="369.2050562406458" y1="-500.85631369381946" y2="-486.9848378543188" stroke-width="5" stroke="#6bdbe9" stroke-linecap="round"></line><line x1="639.0765320801464" x2="625.2050562406457" y1="-500.85631369381946" y2="-486.9848378543188" stroke-width="5" stroke="#6bdbe9" stroke-linecap="round"></line><line x1="127.07653208014642" x2="113.20505624064577" y1="-244.85631369381943" y2="-230.9848378543188" stroke-width="5" stroke="#6bdbe9" stroke-linecap="round"></line><line x1="383.0765320801464" x2="369.2050562406458" y1="-244.85631369381943" y2="-230.9848378543188" stroke-width="5" stroke="#6bdbe9" stroke-linecap="round"></line><line x1="639.0765320801464" x2="625.2050562406457" y1="-244.85631369381943" y2="-230.9848378543188" stroke-width="5" stroke="#6bdbe9" stroke-linecap="round"></line><line x1="127.07653208014642" x2="113.20505624064577" y1="11.143686306180566" y2="25.0151621456812" stroke-width="5" stroke="#6bdbe9" stroke-linecap="round"></line><line x1="383.0765320801464" x2="369.2050562406458" y1="11.143686306180566" y2="25.0151621456812" stroke-width="5" stroke="#6bdbe9" stroke-linecap="round"></line><line x1="639.0765320801464" x2="625.2050562406457" y1="11.143686306180566" y2="25.0151621456812" stroke-width="5" stroke="#6bdbe9" stroke-linecap="round"></line><line x1="199.1304776616666" x2="177.01984319513343" y1="76.8167518109374" y2="98.92738627747059" stroke-width="5" stroke="#6bdbe9" stroke-linecap="round"></line><line x1="199.1304776616666" x2="177.01984319513343" y1="-435.1832481890626" y2="-413.0726137225294" stroke-width="5" stroke="#6bdbe9" stroke-linecap="round"></line><line x1="455.1304776616666" x2="433.01984319513343" y1="-435.1832481890626" y2="-413.0726137225294" stroke-width="5" stroke="#6bdbe9" stroke-linecap="round"></line><line x1="711.1304776616666" x2="689.0198431951335" y1="-435.1832481890626" y2="-413.0726137225294" stroke-width="5" stroke="#6bdbe9" stroke-linecap="round"></line><line x1="199.1304776616666" x2="177.01984319513343" y1="-179.1832481890626" y2="-157.0726137225294" stroke-width="5" stroke="#6bdbe9" stroke-linecap="round"></line><line x1="455.1304776616666" x2="433.01984319513343" y1="-179.1832481890626" y2="-157.0726137225294" stroke-width="5" stroke="#6bdbe9" stroke-linecap="round"></line><line x1="711.1304776616666" x2="689.0198431951335" y1="-179.1832481890626" y2="-157.0726137225294" stroke-width="5" stroke="#6bdbe9" stroke-linecap="round"></line><line x1="199.1304776616666" x2="177.01984319513343" y1="76.8167518109374" y2="98.92738627747059" stroke-width="5" stroke="#6bdbe9" stroke-linecap="round"></line><line x1="455.1304776616666" x2="433.01984319513343" y1="76.8167518109374" y2="98.92738627747059" stroke-width="5" stroke="#6bdbe9" stroke-linecap="round"></line><line x1="711.1304776616666" x2="689.0198431951335" y1="76.8167518109374" y2="98.92738627747059" stroke-width="5" stroke="#6bdbe9" stroke-linecap="round"></line><line x1="231.00639254192578" x2="210.02377330272014" y1="155.3528004092095" y2="176.33541964841513" stroke-width="5" stroke="#6bdbe9" stroke-linecap="round"></line><line x1="231.00639254192578" x2="210.02377330272014" y1="-356.6471995907905" y2="-335.66458035158485" stroke-width="5" stroke="#6bdbe9" stroke-linecap="round"></line><line x1="487.0063925419258" x2="466.02377330272014" y1="-356.6471995907905" y2="-335.66458035158485" stroke-width="5" stroke="#6bdbe9" stroke-linecap="round"></line><line x1="743.0063925419258" x2="722.0237733027202" y1="-356.6471995907905" y2="-335.66458035158485" stroke-width="5" stroke="#6bdbe9" stroke-linecap="round"></line><line x1="231.00639254192578" x2="210.02377330272014" y1="-100.6471995907905" y2="-79.66458035158487" stroke-width="5" stroke="#6bdbe9" stroke-linecap="round"></line><line x1="487.0063925419258" x2="466.02377330272014" y1="-100.6471995907905" y2="-79.66458035158487" stroke-width="5" stroke="#6bdbe9" stroke-linecap="round"></line><line x1="743.0063925419258" x2="722.0237733027202" y1="-100.6471995907905" y2="-79.66458035158487" stroke-width="5" stroke="#6bdbe9" stroke-linecap="round"></line><line x1="231.00639254192578" x2="210.02377330272014" y1="155.3528004092095" y2="176.33541964841513" stroke-width="5" stroke="#6bdbe9" stroke-linecap="round"></line><line x1="487.0063925419258" x2="466.02377330272014" y1="155.3528004092095" y2="176.33541964841513" stroke-width="5" stroke="#6bdbe9" stroke-linecap="round"></line><line x1="743.0063925419258" x2="722.0237733027202" y1="155.3528004092095" y2="176.33541964841513" stroke-width="5" stroke="#6bdbe9" stroke-linecap="round"></line><line x1="177.06213512442864" x2="162.72501083522124" y1="175.70215466714225" y2="190.03927895634965" stroke-width="5" stroke="#6bdbe9" stroke-linecap="round"></line><line x1="177.06213512442864" x2="162.72501083522124" y1="-336.2978453328577" y2="-321.9607210436503" stroke-width="5" stroke="#6bdbe9" stroke-linecap="round"></line><line x1="433.06213512442866" x2="418.72501083522127" y1="-336.2978453328577" y2="-321.9607210436503" stroke-width="5" stroke="#6bdbe9" stroke-linecap="round"></line><line x1="689.0621351244287" x2="674.7250108352213" y1="-336.2978453328577" y2="-321.9607210436503" stroke-width="5" stroke="#6bdbe9" stroke-linecap="round"></line><line x1="177.06213512442864" x2="162.72501083522124" y1="-80.29784533285775" y2="-65.96072104365035" stroke-width="5" stroke="#6bdbe9" stroke-linecap="round"></line><line x1="433.06213512442866" x2="418.72501083522127" y1="-80.29784533285775" y2="-65.96072104365035" stroke-width="5" stroke="#6bdbe9" stroke-linecap="round"></line><line x1="689.0621351244287" x2="674.7250108352213" y1="-80.29784533285775" y2="-65.96072104365035" stroke-width="5" stroke="#6bdbe9" stroke-linecap="round"></line><line x1="177.06213512442864" x2="162.72501083522124" y1="175.70215466714225" y2="190.03927895634965" stroke-width="5" stroke="#6bdbe9" stroke-linecap="round"></line><line x1="433.06213512442866" x2="418.72501083522127" y1="175.70215466714225" y2="190.03927895634965" stroke-width="5" stroke="#6bdbe9" stroke-linecap="round"></line><line x1="689.0621351244287" x2="674.7250108352213" y1="175.70215466714225" y2="190.03927895634965" stroke-width="5" stroke="#6bdbe9" stroke-linecap="round"></line><line x1="48.37775808594891" x2="19.16177504445497" y1="118.51831768236241" y2="147.73430072385634" stroke-width="5" stroke="#6bdbe9" stroke-linecap="round"></line><line x1="48.37775808594891" x2="19.16177504445497" y1="-393.4816823176376" y2="-364.26569927614366" stroke-width="5" stroke="#6bdbe9" stroke-linecap="round"></line><line x1="304.3777580859489" x2="275.161775044455" y1="-393.4816823176376" y2="-364.26569927614366" stroke-width="5" stroke="#6bdbe9" stroke-linecap="round"></line><line x1="560.3777580859489" x2="531.161775044455" y1="-393.4816823176376" y2="-364.26569927614366" stroke-width="5" stroke="#6bdbe9" stroke-linecap="round"></line><line x1="48.37775808594891" x2="19.16177504445497" y1="-137.4816823176376" y2="-108.26569927614366" stroke-width="5" stroke="#6bdbe9" stroke-linecap="round"></line><line x1="304.3777580859489" x2="275.161775044455" y1="-137.4816823176376" y2="-108.26569927614366" stroke-width="5" stroke="#6bdbe9" stroke-linecap="round"></line><line x1="560.3777580859489" x2="531.161775044455" y1="-137.4816823176376" y2="-108.26569927614366" stroke-width="5" stroke="#6bdbe9" stroke-linecap="round"></line><line x1="48.37775808594891" x2="19.16177504445497" y1="118.51831768236241" y2="147.73430072385634" stroke-width="5" stroke="#6bdbe9" stroke-linecap="round"></line><line x1="304.3777580859489" x2="275.161775044455" y1="118.51831768236241" y2="147.73430072385634" stroke-width="5" stroke="#6bdbe9" stroke-linecap="round"></line><line x1="560.3777580859489" x2="531.161775044455" y1="118.51831768236241" y2="147.73430072385634" stroke-width="5" stroke="#6bdbe9" stroke-linecap="round"></line><line x1="219.0930679815123" x2="206.75102019552563" y1="88.35534702502953" y2="100.69739481101617" stroke-width="5" stroke="#6bdbe9" stroke-linecap="round"></line><line x1="219.0930679815123" x2="206.75102019552563" y1="-423.6446529749705" y2="-411.3026051889838" stroke-width="5" stroke="#6bdbe9" stroke-linecap="round"></line><line x1="475.09306798151226" x2="462.7510201955256" y1="-423.6446529749705" y2="-411.3026051889838" stroke-width="5" stroke="#6bdbe9" stroke-linecap="round"></line><line x1="731.0930679815123" x2="718.7510201955256" y1="-423.6446529749705" y2="-411.3026051889838" stroke-width="5" stroke="#6bdbe9" stroke-linecap="round"></line><line x1="219.0930679815123" x2="206.75102019552563" y1="-167.64465297497048" y2="-155.30260518898382" stroke-width="5" stroke="#6bdbe9" stroke-linecap="round"></line><line x1="475.09306798151226" x2="462.7510201955256" y1="-167.64465297497048" y2="-155.30260518898382" stroke-width="5" stroke="#6bdbe9" stroke-linecap="round"></line><line x1="731.0930679815123" x2="718.7510201955256" y1="-167.64465297497048" y2="-155.30260518898382" stroke-width="5" stroke="#6bdbe9" stroke-linecap="round"></line><line x1="219.0930679815123" x2="206.75102019552563" y1="88.35534702502953" y2="100.69739481101617" stroke-width="5" stroke="#6bdbe9" stroke-linecap="round"></line><line x1="475.09306798151226" x2="462.7510201955256" y1="88.35534702502953" y2="100.69739481101617" stroke-width="5" stroke="#6bdbe9" stroke-linecap="round"></line><line x1="731.0930679815123" x2="718.7510201955256" y1="88.35534702502953" y2="100.69739481101617" stroke-width="5" stroke="#6bdbe9" stroke-linecap="round"></line><line x1="53.610297500811825" x2="25.416271788783845" y1="203.56438547924637" y2="231.75841119127432" stroke-width="5" stroke="#6bdbe9" stroke-linecap="round"></line><line x1="53.610297500811825" x2="25.416271788783845" y1="-308.43561452075363" y2="-280.2415888087257" stroke-width="5" stroke="#6bdbe9" stroke-linecap="round"></line><line x1="309.61029750081184" x2="281.41627178878383" y1="-308.43561452075363" y2="-280.2415888087257" stroke-width="5" stroke="#6bdbe9" stroke-linecap="round"></line><line x1="565.6102975008118" x2="537.4162717887839" y1="-308.43561452075363" y2="-280.2415888087257" stroke-width="5" stroke="#6bdbe9" stroke-linecap="round"></line><line x1="53.610297500811825" x2="25.416271788783845" y1="-52.43561452075363" y2="-24.24158880872568" stroke-width="5" stroke="#6bdbe9" stroke-linecap="round"></line><line x1="309.61029750081184" x2="281.41627178878383" y1="-52.43561452075363" y2="-24.24158880872568" stroke-width="5" stroke="#6bdbe9" stroke-linecap="round"></line><line x1="565.6102975008118" x2="537.4162717887839" y1="-52.43561452075363" y2="-24.24158880872568" stroke-width="5" stroke="#6bdbe9" stroke-linecap="round"></line><line x1="53.610297500811825" x2="25.416271788783845" y1="203.56438547924637" y2="231.75841119127432" stroke-width="5" stroke="#6bdbe9" stroke-linecap="round"></line><line x1="309.61029750081184" x2="281.41627178878383" y1="203.56438547924637" y2="231.75841119127432" stroke-width="5" stroke="#6bdbe9" stroke-linecap="round"></line><line x1="565.6102975008118" x2="537.4162717887839" y1="203.56438547924637" y2="231.75841119127432" stroke-width="5" stroke="#6bdbe9" stroke-linecap="round"></line><line x1="183.8637726264718" x2="156.2993917382231" y1="92.84598032392739" y2="120.4103612121761" stroke-width="5" stroke="#6bdbe9" stroke-linecap="round"></line><line x1="183.8637726264718" x2="156.2993917382231" y1="-419.1540196760726" y2="-391.5896387878239" stroke-width="5" stroke="#6bdbe9" stroke-linecap="round"></line><line x1="439.8637726264718" x2="412.2993917382231" y1="-419.1540196760726" y2="-391.5896387878239" stroke-width="5" stroke="#6bdbe9" stroke-linecap="round"></line><line x1="695.8637726264718" x2="668.2993917382231" y1="-419.1540196760726" y2="-391.5896387878239" stroke-width="5" stroke="#6bdbe9" stroke-linecap="round"></line><line x1="183.8637726264718" x2="156.2993917382231" y1="-163.1540196760726" y2="-135.5896387878239" stroke-width="5" stroke="#6bdbe9" stroke-linecap="round"></line><line x1="439.8637726264718" x2="412.2993917382231" y1="-163.1540196760726" y2="-135.5896387878239" stroke-width="5" stroke="#6bdbe9" stroke-linecap="round"></line><line x1="695.8637726264718" x2="668.2993917382231" y1="-163.1540196760726" y2="-135.5896387878239" stroke-width="5" stroke="#6bdbe9" stroke-linecap="round"></line><line x1="183.8637726264718" x2="156.2993917382231" y1="92.84598032392739" y2="120.4103612121761" stroke-width="5" stroke="#6bdbe9" stroke-linecap="round"></line><line x1="439.8637726264718" x2="412.2993917382231" y1="92.84598032392739" y2="120.4103612121761" stroke-width="5" stroke="#6bdbe9" stroke-linecap="round"></line><line x1="695.8637726264718" x2="668.2993917382231" y1="92.84598032392739" y2="120.4103612121761" stroke-width="5" stroke="#6bdbe9" stroke-linecap="round"></line><line x1="107.97274345170915" x2="99.2479849384688" y1="40.03878215404167" y2="48.76354066728203" stroke-width="5" stroke="#009bd2" stroke-linecap="round"></line><line x1="107.97274345170915" x2="99.2479849384688" y1="-471.96121784595834" y2="-463.23645933271797" stroke-width="5" stroke="#009bd2" stroke-linecap="round"></line><line x1="363.97274345170916" x2="355.2479849384688" y1="-471.96121784595834" y2="-463.23645933271797" stroke-width="5" stroke="#009bd2" stroke-linecap="round"></line><line x1="619.9727434517091" x2="611.2479849384688" y1="-471.96121784595834" y2="-463.23645933271797" stroke-width="5" stroke="#009bd2" stroke-linecap="round"></line><line x1="107.97274345170915" x2="99.2479849384688" y1="-215.96121784595834" y2="-207.23645933271797" stroke-width="5" stroke="#009bd2" stroke-linecap="round"></line><line x1="363.97274345170916" x2="355.2479849384688" y1="-215.96121784595834" y2="-207.23645933271797" stroke-width="5" stroke="#009bd2" stroke-linecap="round"></line><line x1="619.9727434517091" x2="611.2479849384688" y1="-215.96121784595834" y2="-207.23645933271797" stroke-width="5" stroke="#009bd2" stroke-linecap="round"></line><line x1="107.97274345170915" x2="99.2479849384688" y1="40.03878215404167" y2="48.76354066728203" stroke-width="5" stroke="#009bd2" stroke-linecap="round"></line><line x1="363.97274345170916" x2="355.2479849384688" y1="40.03878215404167" y2="48.76354066728203" stroke-width="5" stroke="#009bd2" stroke-linecap="round"></line><line x1="619.9727434517091" x2="611.2479849384688" y1="40.03878215404167" y2="48.76354066728203" stroke-width="5" stroke="#009bd2" stroke-linecap="round"></line><line x1="72.72672718474715" x2="57.48823013792431" y1="34.680585480116264" y2="49.91908252693911" stroke-width="5" stroke="#43eaff" stroke-linecap="round"></line><line x1="72.72672718474715" x2="57.48823013792431" y1="-477.3194145198837" y2="-462.0809174730609" stroke-width="5" stroke="#43eaff" stroke-linecap="round"></line><line x1="328.7267271847471" x2="313.4882301379243" y1="-477.3194145198837" y2="-462.0809174730609" stroke-width="5" stroke="#43eaff" stroke-linecap="round"></line><line x1="584.7267271847471" x2="569.4882301379243" y1="-477.3194145198837" y2="-462.0809174730609" stroke-width="5" stroke="#43eaff" stroke-linecap="round"></line><line x1="72.72672718474715" x2="57.48823013792431" y1="-221.31941451988374" y2="-206.08091747306088" stroke-width="5" stroke="#43eaff" stroke-linecap="round"></line><line x1="328.7267271847471" x2="313.4882301379243" y1="-221.31941451988374" y2="-206.08091747306088" stroke-width="5" stroke="#43eaff" stroke-linecap="round"></line><line x1="584.7267271847471" x2="569.4882301379243" y1="-221.31941451988374" y2="-206.08091747306088" stroke-width="5" stroke="#43eaff" stroke-linecap="round"></line><line x1="72.72672718474715" x2="57.48823013792431" y1="34.680585480116264" y2="49.91908252693911" stroke-width="5" stroke="#43eaff" stroke-linecap="round"></line><line x1="328.7267271847471" x2="313.4882301379243" y1="34.680585480116264" y2="49.91908252693911" stroke-width="5" stroke="#43eaff" stroke-linecap="round"></line><line x1="584.7267271847471" x2="569.4882301379243" y1="34.680585480116264" y2="49.91908252693911" stroke-width="5" stroke="#43eaff" stroke-linecap="round"></line>
  <animateTransform attributeName="transform" type="translate" values="0 0;-256 256" keyTimes="0;1" repeatCount="indefinite" dur="0.37453183520599254s"></animateTransform>
</g></g><style type="text/css"></style><!-- [ldio] generated by https://loading.io --></svg>