<svg xmlns="http://www.w3.org/2000/svg" xmlns:xlink="http://www.w3.org/1999/xlink" viewBox="0 0 164 164" preserveAspectRatio="xMidYMid" width="164" height="164" style="shape-rendering: auto; background: rgb(145, 203, 240);"><g id="pattern-group" transform="scale(0.640625)"><g>
  <line x1="142.25140259900715" x2="118.69353133567469" y1="-5.745485327721649" y2="17.81238593561082" stroke-width="5" stroke="#5acdf6" stroke-linecap="round"></line><line x1="142.25140259900715" x2="118.69353133567469" y1="-517.7454853277217" y2="-494.1876140643892" stroke-width="5" stroke="#5acdf6" stroke-linecap="round"></line><line x1="398.2514025990072" x2="374.6935313356747" y1="-517.7454853277217" y2="-494.1876140643892" stroke-width="5" stroke="#5acdf6" stroke-linecap="round"></line><line x1="654.2514025990072" x2="630.6935313356747" y1="-517.7454853277217" y2="-494.1876140643892" stroke-width="5" stroke="#5acdf6" stroke-linecap="round"></line><line x1="142.25140259900715" x2="118.69353133567469" y1="-261.74548532772167" y2="-238.18761406438918" stroke-width="5" stroke="#5acdf6" stroke-linecap="round"></line><line x1="398.2514025990072" x2="374.6935313356747" y1="-261.74548532772167" y2="-238.18761406438918" stroke-width="5" stroke="#5acdf6" stroke-linecap="round"></line><line x1="654.2514025990072" x2="630.6935313356747" y1="-261.74548532772167" y2="-238.18761406438918" stroke-width="5" stroke="#5acdf6" stroke-linecap="round"></line><line x1="142.25140259900715" x2="118.69353133567469" y1="-5.745485327721649" y2="17.81238593561082" stroke-width="5" stroke="#5acdf6" stroke-linecap="round"></line><line x1="398.2514025990072" x2="374.6935313356747" y1="-5.745485327721649" y2="17.81238593561082" stroke-width="5" stroke="#5acdf6" stroke-linecap="round"></line><line x1="654.2514025990072" x2="630.6935313356747" y1="-5.745485327721649" y2="17.81238593561082" stroke-width="5" stroke="#5acdf6" stroke-linecap="round"></line><line x1="142.25140259900715" x2="118.69353133567469" y1="250.25451467227836" y2="273.8123859356108" stroke-width="5" stroke="#5acdf6" stroke-linecap="round"></line><line x1="217.91448444953764" x2="209.4947758606755" y1="196.3853972639193" y2="204.80510585278142" stroke-width="5" stroke="#5acdf6" stroke-linecap="round"></line><line x1="217.91448444953764" x2="209.4947758606755" y1="-315.6146027360807" y2="-307.1948941472186" stroke-width="5" stroke="#5acdf6" stroke-linecap="round"></line><line x1="473.91448444953767" x2="465.49477586067553" y1="-315.6146027360807" y2="-307.1948941472186" stroke-width="5" stroke="#5acdf6" stroke-linecap="round"></line><line x1="729.9144844495377" x2="721.4947758606755" y1="-315.6146027360807" y2="-307.1948941472186" stroke-width="5" stroke="#5acdf6" stroke-linecap="round"></line><line x1="217.91448444953764" x2="209.4947758606755" y1="-59.61460273608071" y2="-51.19489414721858" stroke-width="5" stroke="#5acdf6" stroke-linecap="round"></line><line x1="473.91448444953767" x2="465.49477586067553" y1="-59.61460273608071" y2="-51.19489414721858" stroke-width="5" stroke="#5acdf6" stroke-linecap="round"></line><line x1="729.9144844495377" x2="721.4947758606755" y1="-59.61460273608071" y2="-51.19489414721858" stroke-width="5" stroke="#5acdf6" stroke-linecap="round"></line><line x1="217.91448444953764" x2="209.4947758606755" y1="196.3853972639193" y2="204.80510585278142" stroke-width="5" stroke="#5acdf6" stroke-linecap="round"></line><line x1="473.91448444953767" x2="465.49477586067553" y1="196.3853972639193" y2="204.80510585278142" stroke-width="5" stroke="#5acdf6" stroke-linecap="round"></line><line x1="729.9144844495377" x2="721.4947758606755" y1="196.3853972639193" y2="204.80510585278142" stroke-width="5" stroke="#5acdf6" stroke-linecap="round"></line><line x1="132.8112741497311" x2="110.07042379456772" y1="31.866967619432614" y2="54.60781797459599" stroke-width="5" stroke="#5acdf6" stroke-linecap="round"></line><line x1="132.8112741497311" x2="110.07042379456772" y1="-480.1330323805674" y2="-457.392182025404" stroke-width="5" stroke="#5acdf6" stroke-linecap="round"></line><line x1="388.8112741497311" x2="366.0704237945677" y1="-480.1330323805674" y2="-457.392182025404" stroke-width="5" stroke="#5acdf6" stroke-linecap="round"></line><line x1="644.8112741497312" x2="622.0704237945677" y1="-480.1330323805674" y2="-457.392182025404" stroke-width="5" stroke="#5acdf6" stroke-linecap="round"></line><line x1="132.8112741497311" x2="110.07042379456772" y1="-224.13303238056739" y2="-201.392182025404" stroke-width="5" stroke="#5acdf6" stroke-linecap="round"></line><line x1="388.8112741497311" x2="366.0704237945677" y1="-224.13303238056739" y2="-201.392182025404" stroke-width="5" stroke="#5acdf6" stroke-linecap="round"></line><line x1="644.8112741497312" x2="622.0704237945677" y1="-224.13303238056739" y2="-201.392182025404" stroke-width="5" stroke="#5acdf6" stroke-linecap="round"></line><line x1="132.8112741497311" x2="110.07042379456772" y1="31.866967619432614" y2="54.60781797459599" stroke-width="5" stroke="#5acdf6" stroke-linecap="round"></line><line x1="388.8112741497311" x2="366.0704237945677" y1="31.866967619432614" y2="54.60781797459599" stroke-width="5" stroke="#5acdf6" stroke-linecap="round"></line><line x1="644.8112741497312" x2="622.0704237945677" y1="31.866967619432614" y2="54.60781797459599" stroke-width="5" stroke="#5acdf6" stroke-linecap="round"></line><line x1="190.1649048344378" x2="181.25019259690728" y1="222.52416743611144" y2="231.43887967364196" stroke-width="5" stroke="#5acdf6" stroke-linecap="round"></line><line x1="190.1649048344378" x2="181.25019259690728" y1="-289.47583256388856" y2="-280.56112032635804" stroke-width="5" stroke="#5acdf6" stroke-linecap="round"></line><line x1="446.16490483443783" x2="437.25019259690725" y1="-289.47583256388856" y2="-280.56112032635804" stroke-width="5" stroke="#5acdf6" stroke-linecap="round"></line><line x1="702.1649048344378" x2="693.2501925969073" y1="-289.47583256388856" y2="-280.56112032635804" stroke-width="5" stroke="#5acdf6" stroke-linecap="round"></line><line x1="190.1649048344378" x2="181.25019259690728" y1="-33.47583256388856" y2="-24.561120326358036" stroke-width="5" stroke="#5acdf6" stroke-linecap="round"></line><line x1="446.16490483443783" x2="437.25019259690725" y1="-33.47583256388856" y2="-24.561120326358036" stroke-width="5" stroke="#5acdf6" stroke-linecap="round"></line><line x1="702.1649048344378" x2="693.2501925969073" y1="-33.47583256388856" y2="-24.561120326358036" stroke-width="5" stroke="#5acdf6" stroke-linecap="round"></line><line x1="190.1649048344378" x2="181.25019259690728" y1="222.52416743611144" y2="231.43887967364196" stroke-width="5" stroke="#5acdf6" stroke-linecap="round"></line><line x1="446.16490483443783" x2="437.25019259690725" y1="222.52416743611144" y2="231.43887967364196" stroke-width="5" stroke="#5acdf6" stroke-linecap="round"></line><line x1="702.1649048344378" x2="693.2501925969073" y1="222.52416743611144" y2="231.43887967364196" stroke-width="5" stroke="#5acdf6" stroke-linecap="round"></line><line x1="126.89397709246524" x2="100.70189800988743" y1="37.440022729777795" y2="63.632101812355614" stroke-width="5" stroke="#5acdf6" stroke-linecap="round"></line><line x1="126.89397709246524" x2="100.70189800988743" y1="-474.5599772702222" y2="-448.3678981876444" stroke-width="5" stroke="#5acdf6" stroke-linecap="round"></line><line x1="382.8939770924652" x2="356.70189800988743" y1="-474.5599772702222" y2="-448.3678981876444" stroke-width="5" stroke="#5acdf6" stroke-linecap="round"></line><line x1="638.8939770924652" x2="612.7018980098874" y1="-474.5599772702222" y2="-448.3678981876444" stroke-width="5" stroke="#5acdf6" stroke-linecap="round"></line><line x1="126.89397709246524" x2="100.70189800988743" y1="-218.5599772702222" y2="-192.36789818764439" stroke-width="5" stroke="#5acdf6" stroke-linecap="round"></line><line x1="382.8939770924652" x2="356.70189800988743" y1="-218.5599772702222" y2="-192.36789818764439" stroke-width="5" stroke="#5acdf6" stroke-linecap="round"></line><line x1="638.8939770924652" x2="612.7018980098874" y1="-218.5599772702222" y2="-192.36789818764439" stroke-width="5" stroke="#5acdf6" stroke-linecap="round"></line><line x1="126.89397709246524" x2="100.70189800988743" y1="37.440022729777795" y2="63.632101812355614" stroke-width="5" stroke="#5acdf6" stroke-linecap="round"></line><line x1="382.8939770924652" x2="356.70189800988743" y1="37.440022729777795" y2="63.632101812355614" stroke-width="5" stroke="#5acdf6" stroke-linecap="round"></line><line x1="638.8939770924652" x2="612.7018980098874" y1="37.440022729777795" y2="63.632101812355614" stroke-width="5" stroke="#5acdf6" stroke-linecap="round"></line><line x1="221.0084065198537" x2="193.573612880657" y1="138.64386360998537" y2="166.07865724918207" stroke-width="5" stroke="#5acdf6" stroke-linecap="round"></line><line x1="221.0084065198537" x2="193.573612880657" y1="-373.3561363900146" y2="-345.9213427508179" stroke-width="5" stroke="#5acdf6" stroke-linecap="round"></line><line x1="477.0084065198537" x2="449.57361288065704" y1="-373.3561363900146" y2="-345.9213427508179" stroke-width="5" stroke="#5acdf6" stroke-linecap="round"></line><line x1="733.0084065198537" x2="705.573612880657" y1="-373.3561363900146" y2="-345.9213427508179" stroke-width="5" stroke="#5acdf6" stroke-linecap="round"></line><line x1="221.0084065198537" x2="193.573612880657" y1="-117.35613639001463" y2="-89.92134275081793" stroke-width="5" stroke="#5acdf6" stroke-linecap="round"></line><line x1="477.0084065198537" x2="449.57361288065704" y1="-117.35613639001463" y2="-89.92134275081793" stroke-width="5" stroke="#5acdf6" stroke-linecap="round"></line><line x1="733.0084065198537" x2="705.573612880657" y1="-117.35613639001463" y2="-89.92134275081793" stroke-width="5" stroke="#5acdf6" stroke-linecap="round"></line><line x1="221.0084065198537" x2="193.573612880657" y1="138.64386360998537" y2="166.07865724918207" stroke-width="5" stroke="#5acdf6" stroke-linecap="round"></line><line x1="477.0084065198537" x2="449.57361288065704" y1="138.64386360998537" y2="166.07865724918207" stroke-width="5" stroke="#5acdf6" stroke-linecap="round"></line><line x1="733.0084065198537" x2="705.573612880657" y1="138.64386360998537" y2="166.07865724918207" stroke-width="5" stroke="#5acdf6" stroke-linecap="round"></line><line x1="220.26695663651927" x2="208.65184334905027" y1="220.96717250246476" y2="232.58228578993376" stroke-width="5" stroke="#5acdf6" stroke-linecap="round"></line><line x1="220.26695663651927" x2="208.65184334905027" y1="-291.0328274975352" y2="-279.41771421006626" stroke-width="5" stroke="#5acdf6" stroke-linecap="round"></line><line x1="476.26695663651924" x2="464.6518433490503" y1="-291.0328274975352" y2="-279.41771421006626" stroke-width="5" stroke="#5acdf6" stroke-linecap="round"></line><line x1="732.2669566365192" x2="720.6518433490503" y1="-291.0328274975352" y2="-279.41771421006626" stroke-width="5" stroke="#5acdf6" stroke-linecap="round"></line><line x1="220.26695663651927" x2="208.65184334905027" y1="-35.03282749753524" y2="-23.417714210066237" stroke-width="5" stroke="#5acdf6" stroke-linecap="round"></line><line x1="476.26695663651924" x2="464.6518433490503" y1="-35.03282749753524" y2="-23.417714210066237" stroke-width="5" stroke="#5acdf6" stroke-linecap="round"></line><line x1="732.2669566365192" x2="720.6518433490503" y1="-35.03282749753524" y2="-23.417714210066237" stroke-width="5" stroke="#5acdf6" stroke-linecap="round"></line><line x1="220.26695663651927" x2="208.65184334905027" y1="220.96717250246476" y2="232.58228578993376" stroke-width="5" stroke="#5acdf6" stroke-linecap="round"></line><line x1="476.26695663651924" x2="464.6518433490503" y1="220.96717250246476" y2="232.58228578993376" stroke-width="5" stroke="#5acdf6" stroke-linecap="round"></line><line x1="732.2669566365192" x2="720.6518433490503" y1="220.96717250246476" y2="232.58228578993376" stroke-width="5" stroke="#5acdf6" stroke-linecap="round"></line><line x1="236.34592264412933" x2="215.53135805669191" y1="122.67898136184058" y2="143.493545949278" stroke-width="5" stroke="#5acdf6" stroke-linecap="round"></line><line x1="236.34592264412933" x2="215.53135805669191" y1="-389.32101863815944" y2="-368.506454050722" stroke-width="5" stroke="#5acdf6" stroke-linecap="round"></line><line x1="492.34592264412936" x2="471.53135805669194" y1="-389.32101863815944" y2="-368.506454050722" stroke-width="5" stroke="#5acdf6" stroke-linecap="round"></line><line x1="748.3459226441294" x2="727.5313580566919" y1="-389.32101863815944" y2="-368.506454050722" stroke-width="5" stroke="#5acdf6" stroke-linecap="round"></line><line x1="236.34592264412933" x2="215.53135805669191" y1="-133.32101863815942" y2="-112.506454050722" stroke-width="5" stroke="#5acdf6" stroke-linecap="round"></line><line x1="492.34592264412936" x2="471.53135805669194" y1="-133.32101863815942" y2="-112.506454050722" stroke-width="5" stroke="#5acdf6" stroke-linecap="round"></line><line x1="748.3459226441294" x2="727.5313580566919" y1="-133.32101863815942" y2="-112.506454050722" stroke-width="5" stroke="#5acdf6" stroke-linecap="round"></line><line x1="236.34592264412933" x2="215.53135805669191" y1="122.67898136184058" y2="143.493545949278" stroke-width="5" stroke="#5acdf6" stroke-linecap="round"></line><line x1="492.34592264412936" x2="471.53135805669194" y1="122.67898136184058" y2="143.493545949278" stroke-width="5" stroke="#5acdf6" stroke-linecap="round"></line><line x1="748.3459226441294" x2="727.5313580566919" y1="122.67898136184058" y2="143.493545949278" stroke-width="5" stroke="#5acdf6" stroke-linecap="round"></line><line x1="88.65318471432762" x2="81.56489751277242" y1="9.544273732052401" y2="16.63256093360761" stroke-width="5" stroke="#a9f0f9" stroke-linecap="round"></line><line x1="88.65318471432762" x2="81.56489751277242" y1="-502.4557262679476" y2="-495.36743906639236" stroke-width="5" stroke="#a9f0f9" stroke-linecap="round"></line><line x1="344.6531847143276" x2="337.5648975127724" y1="-502.4557262679476" y2="-495.36743906639236" stroke-width="5" stroke="#a9f0f9" stroke-linecap="round"></line><line x1="600.6531847143276" x2="593.5648975127724" y1="-502.4557262679476" y2="-495.36743906639236" stroke-width="5" stroke="#a9f0f9" stroke-linecap="round"></line><line x1="88.65318471432762" x2="81.56489751277242" y1="-246.4557262679476" y2="-239.3674390663924" stroke-width="5" stroke="#a9f0f9" stroke-linecap="round"></line><line x1="344.6531847143276" x2="337.5648975127724" y1="-246.4557262679476" y2="-239.3674390663924" stroke-width="5" stroke="#a9f0f9" stroke-linecap="round"></line><line x1="600.6531847143276" x2="593.5648975127724" y1="-246.4557262679476" y2="-239.3674390663924" stroke-width="5" stroke="#a9f0f9" stroke-linecap="round"></line><line x1="88.65318471432762" x2="81.56489751277242" y1="9.544273732052401" y2="16.63256093360761" stroke-width="5" stroke="#a9f0f9" stroke-linecap="round"></line><line x1="344.6531847143276" x2="337.5648975127724" y1="9.544273732052401" y2="16.63256093360761" stroke-width="5" stroke="#a9f0f9" stroke-linecap="round"></line><line x1="600.6531847143276" x2="593.5648975127724" y1="9.544273732052401" y2="16.63256093360761" stroke-width="5" stroke="#a9f0f9" stroke-linecap="round"></line><line x1="89.86162757557106" x2="62.197694376968926" y1="240.9065220836994" y2="268.5704552823015" stroke-width="5" stroke="#5acdf6" stroke-linecap="round"></line><line x1="89.86162757557106" x2="62.197694376968926" y1="-271.09347791630057" y2="-243.4295447176985" stroke-width="5" stroke="#5acdf6" stroke-linecap="round"></line><line x1="345.86162757557105" x2="318.1976943769689" y1="-271.09347791630057" y2="-243.4295447176985" stroke-width="5" stroke="#5acdf6" stroke-linecap="round"></line><line x1="601.8616275755711" x2="574.1976943769689" y1="-271.09347791630057" y2="-243.4295447176985" stroke-width="5" stroke="#5acdf6" stroke-linecap="round"></line><line x1="89.86162757557106" x2="62.197694376968926" y1="-15.0934779163006" y2="12.57045528230151" stroke-width="5" stroke="#5acdf6" stroke-linecap="round"></line><line x1="345.86162757557105" x2="318.1976943769689" y1="-15.0934779163006" y2="12.57045528230151" stroke-width="5" stroke="#5acdf6" stroke-linecap="round"></line><line x1="601.8616275755711" x2="574.1976943769689" y1="-15.0934779163006" y2="12.57045528230151" stroke-width="5" stroke="#5acdf6" stroke-linecap="round"></line><line x1="89.86162757557106" x2="62.197694376968926" y1="240.9065220836994" y2="268.5704552823015" stroke-width="5" stroke="#5acdf6" stroke-linecap="round"></line><line x1="345.86162757557105" x2="318.1976943769689" y1="240.9065220836994" y2="268.5704552823015" stroke-width="5" stroke="#5acdf6" stroke-linecap="round"></line><line x1="601.8616275755711" x2="574.1976943769689" y1="240.9065220836994" y2="268.5704552823015" stroke-width="5" stroke="#5acdf6" stroke-linecap="round"></line>
  <animateTransform attributeName="transform" type="translate" values="0 0;-256 256" keyTimes="0;1" repeatCount="indefinite" dur="1.1235955056179776s"></animateTransform>
</g><g>
  <line x1="198.73344720340162" x2="191.36784300412563" y1="241.19179349570388" y2="248.55739769497987" stroke-width="5" stroke="#43eaff" stroke-linecap="round"></line><line x1="198.73344720340162" x2="191.36784300412563" y1="-270.8082065042961" y2="-263.44260230502016" stroke-width="5" stroke="#43eaff" stroke-linecap="round"></line><line x1="454.7334472034016" x2="447.36784300412563" y1="-270.8082065042961" y2="-263.44260230502016" stroke-width="5" stroke="#43eaff" stroke-linecap="round"></line><line x1="710.7334472034016" x2="703.3678430041257" y1="-270.8082065042961" y2="-263.44260230502016" stroke-width="5" stroke="#43eaff" stroke-linecap="round"></line><line x1="198.73344720340162" x2="191.36784300412563" y1="-14.808206504296123" y2="-7.442602305020131" stroke-width="5" stroke="#43eaff" stroke-linecap="round"></line><line x1="454.7334472034016" x2="447.36784300412563" y1="-14.808206504296123" y2="-7.442602305020131" stroke-width="5" stroke="#43eaff" stroke-linecap="round"></line><line x1="710.7334472034016" x2="703.3678430041257" y1="-14.808206504296123" y2="-7.442602305020131" stroke-width="5" stroke="#43eaff" stroke-linecap="round"></line><line x1="198.73344720340162" x2="191.36784300412563" y1="241.19179349570388" y2="248.55739769497987" stroke-width="5" stroke="#43eaff" stroke-linecap="round"></line><line x1="454.7334472034016" x2="447.36784300412563" y1="241.19179349570388" y2="248.55739769497987" stroke-width="5" stroke="#43eaff" stroke-linecap="round"></line><line x1="710.7334472034016" x2="703.3678430041257" y1="241.19179349570388" y2="248.55739769497987" stroke-width="5" stroke="#43eaff" stroke-linecap="round"></line><line x1="258.15747601003045" x2="250.63529058393712" y1="154.7681676120231" y2="162.29035303811645" stroke-width="5" stroke="#5acdf6" stroke-linecap="round"></line><line x1="258.15747601003045" x2="250.63529058393712" y1="-357.2318323879769" y2="-349.70964696188355" stroke-width="5" stroke="#5acdf6" stroke-linecap="round"></line><line x1="514.1574760100305" x2="506.63529058393715" y1="-357.2318323879769" y2="-349.70964696188355" stroke-width="5" stroke="#5acdf6" stroke-linecap="round"></line><line x1="770.1574760100305" x2="762.6352905839371" y1="-357.2318323879769" y2="-349.70964696188355" stroke-width="5" stroke="#5acdf6" stroke-linecap="round"></line><line x1="258.15747601003045" x2="250.63529058393712" y1="-101.23183238797691" y2="-93.70964696188355" stroke-width="5" stroke="#5acdf6" stroke-linecap="round"></line><line x1="514.1574760100305" x2="506.63529058393715" y1="-101.23183238797691" y2="-93.70964696188355" stroke-width="5" stroke="#5acdf6" stroke-linecap="round"></line><line x1="770.1574760100305" x2="762.6352905839371" y1="-101.23183238797691" y2="-93.70964696188355" stroke-width="5" stroke="#5acdf6" stroke-linecap="round"></line><line x1="258.15747601003045" x2="250.63529058393712" y1="154.7681676120231" y2="162.29035303811645" stroke-width="5" stroke="#5acdf6" stroke-linecap="round"></line><line x1="514.1574760100305" x2="506.63529058393715" y1="154.7681676120231" y2="162.29035303811645" stroke-width="5" stroke="#5acdf6" stroke-linecap="round"></line><line x1="770.1574760100305" x2="762.6352905839371" y1="154.7681676120231" y2="162.29035303811645" stroke-width="5" stroke="#5acdf6" stroke-linecap="round"></line><line x1="2.15747601003045" x2="-5.36470941606288" y1="154.7681676120231" y2="162.29035303811645" stroke-width="5" stroke="#5acdf6" stroke-linecap="round"></line><line x1="6.6537823816617685" x2="-0.9340520467028104" y1="216.40597572674918" y2="223.99381015511378" stroke-width="5" stroke="#43eaff" stroke-linecap="round"></line><line x1="6.6537823816617685" x2="-0.9340520467028104" y1="-295.59402427325085" y2="-288.0061898448862" stroke-width="5" stroke="#43eaff" stroke-linecap="round"></line><line x1="262.65378238166176" x2="255.06594795329718" y1="-295.59402427325085" y2="-288.0061898448862" stroke-width="5" stroke="#43eaff" stroke-linecap="round"></line><line x1="518.6537823816618" x2="511.0659479532972" y1="-295.59402427325085" y2="-288.0061898448862" stroke-width="5" stroke="#43eaff" stroke-linecap="round"></line><line x1="6.6537823816617685" x2="-0.9340520467028104" y1="-39.594024273250824" y2="-32.00618984488622" stroke-width="5" stroke="#43eaff" stroke-linecap="round"></line><line x1="262.65378238166176" x2="255.06594795329718" y1="-39.594024273250824" y2="-32.00618984488622" stroke-width="5" stroke="#43eaff" stroke-linecap="round"></line><line x1="518.6537823816618" x2="511.0659479532972" y1="-39.594024273250824" y2="-32.00618984488622" stroke-width="5" stroke="#43eaff" stroke-linecap="round"></line><line x1="6.6537823816617685" x2="-0.9340520467028104" y1="216.40597572674918" y2="223.99381015511378" stroke-width="5" stroke="#43eaff" stroke-linecap="round"></line><line x1="262.65378238166176" x2="255.06594795329718" y1="216.40597572674918" y2="223.99381015511378" stroke-width="5" stroke="#43eaff" stroke-linecap="round"></line><line x1="518.6537823816618" x2="511.0659479532972" y1="216.40597572674918" y2="223.99381015511378" stroke-width="5" stroke="#43eaff" stroke-linecap="round"></line><line x1="147.9603453229163" x2="139.37772437146114" y1="74.6708869631354" y2="83.25350791459057" stroke-width="5" stroke="#a9f0f9" stroke-linecap="round"></line><line x1="147.9603453229163" x2="139.37772437146114" y1="-437.3291130368646" y2="-428.74649208540944" stroke-width="5" stroke="#a9f0f9" stroke-linecap="round"></line><line x1="403.9603453229163" x2="395.3777243714611" y1="-437.3291130368646" y2="-428.74649208540944" stroke-width="5" stroke="#a9f0f9" stroke-linecap="round"></line><line x1="659.9603453229163" x2="651.3777243714611" y1="-437.3291130368646" y2="-428.74649208540944" stroke-width="5" stroke="#a9f0f9" stroke-linecap="round"></line><line x1="147.9603453229163" x2="139.37772437146114" y1="-181.3291130368646" y2="-172.74649208540944" stroke-width="5" stroke="#a9f0f9" stroke-linecap="round"></line><line x1="403.9603453229163" x2="395.3777243714611" y1="-181.3291130368646" y2="-172.74649208540944" stroke-width="5" stroke="#a9f0f9" stroke-linecap="round"></line><line x1="659.9603453229163" x2="651.3777243714611" y1="-181.3291130368646" y2="-172.74649208540944" stroke-width="5" stroke="#a9f0f9" stroke-linecap="round"></line><line x1="147.9603453229163" x2="139.37772437146114" y1="74.6708869631354" y2="83.25350791459057" stroke-width="5" stroke="#a9f0f9" stroke-linecap="round"></line><line x1="403.9603453229163" x2="395.3777243714611" y1="74.6708869631354" y2="83.25350791459057" stroke-width="5" stroke="#a9f0f9" stroke-linecap="round"></line><line x1="659.9603453229163" x2="651.3777243714611" y1="74.6708869631354" y2="83.25350791459057" stroke-width="5" stroke="#a9f0f9" stroke-linecap="round"></line><line x1="253.1360190515294" x2="244.53990307987323" y1="104.88498326026611" y2="113.48109923192224" stroke-width="5" stroke="#43eaff" stroke-linecap="round"></line><line x1="253.1360190515294" x2="244.53990307987323" y1="-407.1150167397339" y2="-398.51890076807774" stroke-width="5" stroke="#43eaff" stroke-linecap="round"></line><line x1="509.1360190515294" x2="500.5399030798732" y1="-407.1150167397339" y2="-398.51890076807774" stroke-width="5" stroke="#43eaff" stroke-linecap="round"></line><line x1="765.1360190515294" x2="756.5399030798733" y1="-407.1150167397339" y2="-398.51890076807774" stroke-width="5" stroke="#43eaff" stroke-linecap="round"></line><line x1="253.1360190515294" x2="244.53990307987323" y1="-151.1150167397339" y2="-142.51890076807774" stroke-width="5" stroke="#43eaff" stroke-linecap="round"></line><line x1="509.1360190515294" x2="500.5399030798732" y1="-151.1150167397339" y2="-142.51890076807774" stroke-width="5" stroke="#43eaff" stroke-linecap="round"></line><line x1="765.1360190515294" x2="756.5399030798733" y1="-151.1150167397339" y2="-142.51890076807774" stroke-width="5" stroke="#43eaff" stroke-linecap="round"></line><line x1="253.1360190515294" x2="244.53990307987323" y1="104.88498326026611" y2="113.48109923192224" stroke-width="5" stroke="#43eaff" stroke-linecap="round"></line><line x1="509.1360190515294" x2="500.5399030798732" y1="104.88498326026611" y2="113.48109923192224" stroke-width="5" stroke="#43eaff" stroke-linecap="round"></line><line x1="765.1360190515294" x2="756.5399030798733" y1="104.88498326026611" y2="113.48109923192224" stroke-width="5" stroke="#43eaff" stroke-linecap="round"></line><line x1="200.36155709638115" x2="185.82939259299502" y1="185.80560645837335" y2="200.33777096175947" stroke-width="5" stroke="#43eaff" stroke-linecap="round"></line><line x1="200.36155709638115" x2="185.82939259299502" y1="-326.19439354162665" y2="-311.6622290382405" stroke-width="5" stroke="#43eaff" stroke-linecap="round"></line><line x1="456.36155709638115" x2="441.829392592995" y1="-326.19439354162665" y2="-311.6622290382405" stroke-width="5" stroke="#43eaff" stroke-linecap="round"></line><line x1="712.3615570963811" x2="697.829392592995" y1="-326.19439354162665" y2="-311.6622290382405" stroke-width="5" stroke="#43eaff" stroke-linecap="round"></line><line x1="200.36155709638115" x2="185.82939259299502" y1="-70.19439354162665" y2="-55.662229038240525" stroke-width="5" stroke="#43eaff" stroke-linecap="round"></line><line x1="456.36155709638115" x2="441.829392592995" y1="-70.19439354162665" y2="-55.662229038240525" stroke-width="5" stroke="#43eaff" stroke-linecap="round"></line><line x1="712.3615570963811" x2="697.829392592995" y1="-70.19439354162665" y2="-55.662229038240525" stroke-width="5" stroke="#43eaff" stroke-linecap="round"></line><line x1="200.36155709638115" x2="185.82939259299502" y1="185.80560645837335" y2="200.33777096175947" stroke-width="5" stroke="#43eaff" stroke-linecap="round"></line><line x1="456.36155709638115" x2="441.829392592995" y1="185.80560645837335" y2="200.33777096175947" stroke-width="5" stroke="#43eaff" stroke-linecap="round"></line><line x1="712.3615570963811" x2="697.829392592995" y1="185.80560645837335" y2="200.33777096175947" stroke-width="5" stroke="#43eaff" stroke-linecap="round"></line><line x1="35.99852114331896" x2="22.83559909733255" y1="204.4897826793318" y2="217.65270472531822" stroke-width="5" stroke="#43eaff" stroke-linecap="round"></line><line x1="35.99852114331896" x2="22.83559909733255" y1="-307.5102173206682" y2="-294.34729527468176" stroke-width="5" stroke="#43eaff" stroke-linecap="round"></line><line x1="291.99852114331895" x2="278.83559909733253" y1="-307.5102173206682" y2="-294.34729527468176" stroke-width="5" stroke="#43eaff" stroke-linecap="round"></line><line x1="547.998521143319" x2="534.8355990973325" y1="-307.5102173206682" y2="-294.34729527468176" stroke-width="5" stroke="#43eaff" stroke-linecap="round"></line><line x1="35.99852114331896" x2="22.83559909733255" y1="-51.510217320668204" y2="-38.347295274681784" stroke-width="5" stroke="#43eaff" stroke-linecap="round"></line><line x1="291.99852114331895" x2="278.83559909733253" y1="-51.510217320668204" y2="-38.347295274681784" stroke-width="5" stroke="#43eaff" stroke-linecap="round"></line><line x1="547.998521143319" x2="534.8355990973325" y1="-51.510217320668204" y2="-38.347295274681784" stroke-width="5" stroke="#43eaff" stroke-linecap="round"></line><line x1="35.99852114331896" x2="22.83559909733255" y1="204.4897826793318" y2="217.65270472531822" stroke-width="5" stroke="#43eaff" stroke-linecap="round"></line><line x1="291.99852114331895" x2="278.83559909733253" y1="204.4897826793318" y2="217.65270472531822" stroke-width="5" stroke="#43eaff" stroke-linecap="round"></line><line x1="547.998521143319" x2="534.8355990973325" y1="204.4897826793318" y2="217.65270472531822" stroke-width="5" stroke="#43eaff" stroke-linecap="round"></line><line x1="159.17640075133704" x2="137.2700031680256" y1="177.2507761411512" y2="199.15717372446264" stroke-width="5" stroke="#43eaff" stroke-linecap="round"></line><line x1="159.17640075133704" x2="137.2700031680256" y1="-334.74922385884884" y2="-312.8428262755374" stroke-width="5" stroke="#43eaff" stroke-linecap="round"></line><line x1="415.17640075133704" x2="393.2700031680256" y1="-334.74922385884884" y2="-312.8428262755374" stroke-width="5" stroke="#43eaff" stroke-linecap="round"></line><line x1="671.176400751337" x2="649.2700031680256" y1="-334.74922385884884" y2="-312.8428262755374" stroke-width="5" stroke="#43eaff" stroke-linecap="round"></line><line x1="159.17640075133704" x2="137.2700031680256" y1="-78.74922385884881" y2="-56.84282627553736" stroke-width="5" stroke="#43eaff" stroke-linecap="round"></line><line x1="415.17640075133704" x2="393.2700031680256" y1="-78.74922385884881" y2="-56.84282627553736" stroke-width="5" stroke="#43eaff" stroke-linecap="round"></line><line x1="671.176400751337" x2="649.2700031680256" y1="-78.74922385884881" y2="-56.84282627553736" stroke-width="5" stroke="#43eaff" stroke-linecap="round"></line><line x1="159.17640075133704" x2="137.2700031680256" y1="177.2507761411512" y2="199.15717372446264" stroke-width="5" stroke="#43eaff" stroke-linecap="round"></line><line x1="415.17640075133704" x2="393.2700031680256" y1="177.2507761411512" y2="199.15717372446264" stroke-width="5" stroke="#43eaff" stroke-linecap="round"></line><line x1="671.176400751337" x2="649.2700031680256" y1="177.2507761411512" y2="199.15717372446264" stroke-width="5" stroke="#43eaff" stroke-linecap="round"></line><line x1="172.1236527515967" x2="142.65342113003555" y1="240.64793347945226" y2="270.1181651010134" stroke-width="5" stroke="#43eaff" stroke-linecap="round"></line><line x1="172.1236527515967" x2="142.65342113003555" y1="-271.35206652054774" y2="-241.8818348989866" stroke-width="5" stroke="#43eaff" stroke-linecap="round"></line><line x1="428.1236527515967" x2="398.65342113003555" y1="-271.35206652054774" y2="-241.8818348989866" stroke-width="5" stroke="#43eaff" stroke-linecap="round"></line><line x1="684.1236527515966" x2="654.6534211300356" y1="-271.35206652054774" y2="-241.8818348989866" stroke-width="5" stroke="#43eaff" stroke-linecap="round"></line><line x1="172.1236527515967" x2="142.65342113003555" y1="-15.352066520547737" y2="14.118165101013403" stroke-width="5" stroke="#43eaff" stroke-linecap="round"></line><line x1="428.1236527515967" x2="398.65342113003555" y1="-15.352066520547737" y2="14.118165101013403" stroke-width="5" stroke="#43eaff" stroke-linecap="round"></line><line x1="684.1236527515966" x2="654.6534211300356" y1="-15.352066520547737" y2="14.118165101013403" stroke-width="5" stroke="#43eaff" stroke-linecap="round"></line><line x1="172.1236527515967" x2="142.65342113003555" y1="240.64793347945226" y2="270.1181651010134" stroke-width="5" stroke="#43eaff" stroke-linecap="round"></line><line x1="428.1236527515967" x2="398.65342113003555" y1="240.64793347945226" y2="270.1181651010134" stroke-width="5" stroke="#43eaff" stroke-linecap="round"></line><line x1="684.1236527515966" x2="654.6534211300356" y1="240.64793347945226" y2="270.1181651010134" stroke-width="5" stroke="#43eaff" stroke-linecap="round"></line><line x1="21.822002816107524" x2="11.11059480943823" y1="17.02566284252738" y2="27.737070849196677" stroke-width="5" stroke="#43eaff" stroke-linecap="round"></line><line x1="21.822002816107524" x2="11.11059480943823" y1="-494.97433715747263" y2="-484.2629291508033" stroke-width="5" stroke="#43eaff" stroke-linecap="round"></line><line x1="277.8220028161075" x2="267.1105948094382" y1="-494.97433715747263" y2="-484.2629291508033" stroke-width="5" stroke="#43eaff" stroke-linecap="round"></line><line x1="533.8220028161076" x2="523.1105948094382" y1="-494.97433715747263" y2="-484.2629291508033" stroke-width="5" stroke="#43eaff" stroke-linecap="round"></line><line x1="21.822002816107524" x2="11.11059480943823" y1="-238.97433715747263" y2="-228.26292915080333" stroke-width="5" stroke="#43eaff" stroke-linecap="round"></line><line x1="277.8220028161075" x2="267.1105948094382" y1="-238.97433715747263" y2="-228.26292915080333" stroke-width="5" stroke="#43eaff" stroke-linecap="round"></line><line x1="533.8220028161076" x2="523.1105948094382" y1="-238.97433715747263" y2="-228.26292915080333" stroke-width="5" stroke="#43eaff" stroke-linecap="round"></line><line x1="21.822002816107524" x2="11.11059480943823" y1="17.02566284252738" y2="27.737070849196677" stroke-width="5" stroke="#43eaff" stroke-linecap="round"></line><line x1="277.8220028161075" x2="267.1105948094382" y1="17.02566284252738" y2="27.737070849196677" stroke-width="5" stroke="#43eaff" stroke-linecap="round"></line><line x1="533.8220028161076" x2="523.1105948094382" y1="17.02566284252738" y2="27.737070849196677" stroke-width="5" stroke="#43eaff" stroke-linecap="round"></line>
  <animateTransform attributeName="transform" type="translate" values="0 0;-256 256" keyTimes="0;1" repeatCount="indefinite" dur="0.5617977528089888s"></animateTransform>
</g><g>
  <line x1="165.50062758223666" x2="153.39659657967812" y1="34.262597021764236" y2="46.36662802432278" stroke-width="5" stroke="#a9f0f9" stroke-linecap="round"></line><line x1="165.50062758223666" x2="153.39659657967812" y1="-477.73740297823576" y2="-465.6333719756772" stroke-width="5" stroke="#a9f0f9" stroke-linecap="round"></line><line x1="421.5006275822367" x2="409.3965965796781" y1="-477.73740297823576" y2="-465.6333719756772" stroke-width="5" stroke="#a9f0f9" stroke-linecap="round"></line><line x1="677.5006275822367" x2="665.3965965796781" y1="-477.73740297823576" y2="-465.6333719756772" stroke-width="5" stroke="#a9f0f9" stroke-linecap="round"></line><line x1="165.50062758223666" x2="153.39659657967812" y1="-221.73740297823576" y2="-209.63337197567722" stroke-width="5" stroke="#a9f0f9" stroke-linecap="round"></line><line x1="421.5006275822367" x2="409.3965965796781" y1="-221.73740297823576" y2="-209.63337197567722" stroke-width="5" stroke="#a9f0f9" stroke-linecap="round"></line><line x1="677.5006275822367" x2="665.3965965796781" y1="-221.73740297823576" y2="-209.63337197567722" stroke-width="5" stroke="#a9f0f9" stroke-linecap="round"></line><line x1="165.50062758223666" x2="153.39659657967812" y1="34.262597021764236" y2="46.36662802432278" stroke-width="5" stroke="#a9f0f9" stroke-linecap="round"></line><line x1="421.5006275822367" x2="409.3965965796781" y1="34.262597021764236" y2="46.36662802432278" stroke-width="5" stroke="#a9f0f9" stroke-linecap="round"></line><line x1="677.5006275822367" x2="665.3965965796781" y1="34.262597021764236" y2="46.36662802432278" stroke-width="5" stroke="#a9f0f9" stroke-linecap="round"></line><line x1="50.589148113489124" x2="41.13033276534859" y1="62.679181516264585" y2="72.13799686440511" stroke-width="5" stroke="#a9f0f9" stroke-linecap="round"></line><line x1="50.589148113489124" x2="41.13033276534859" y1="-449.3208184837354" y2="-439.8620031355949" stroke-width="5" stroke="#a9f0f9" stroke-linecap="round"></line><line x1="306.5891481134891" x2="297.1303327653486" y1="-449.3208184837354" y2="-439.8620031355949" stroke-width="5" stroke="#a9f0f9" stroke-linecap="round"></line><line x1="562.5891481134892" x2="553.1303327653486" y1="-449.3208184837354" y2="-439.8620031355949" stroke-width="5" stroke="#a9f0f9" stroke-linecap="round"></line><line x1="50.589148113489124" x2="41.13033276534859" y1="-193.32081848373542" y2="-183.86200313559488" stroke-width="5" stroke="#a9f0f9" stroke-linecap="round"></line><line x1="306.5891481134891" x2="297.1303327653486" y1="-193.32081848373542" y2="-183.86200313559488" stroke-width="5" stroke="#a9f0f9" stroke-linecap="round"></line><line x1="562.5891481134892" x2="553.1303327653486" y1="-193.32081848373542" y2="-183.86200313559488" stroke-width="5" stroke="#a9f0f9" stroke-linecap="round"></line><line x1="50.589148113489124" x2="41.13033276534859" y1="62.679181516264585" y2="72.13799686440511" stroke-width="5" stroke="#a9f0f9" stroke-linecap="round"></line><line x1="306.5891481134891" x2="297.1303327653486" y1="62.679181516264585" y2="72.13799686440511" stroke-width="5" stroke="#a9f0f9" stroke-linecap="round"></line><line x1="562.5891481134892" x2="553.1303327653486" y1="62.679181516264585" y2="72.13799686440511" stroke-width="5" stroke="#a9f0f9" stroke-linecap="round"></line><line x1="53.310916630013786" x2="26.138152060989746" y1="166.5547953564046" y2="193.72755992542864" stroke-width="5" stroke="#a9f0f9" stroke-linecap="round"></line><line x1="53.310916630013786" x2="26.138152060989746" y1="-345.4452046435954" y2="-318.27244007457136" stroke-width="5" stroke="#a9f0f9" stroke-linecap="round"></line><line x1="309.31091663001376" x2="282.13815206098974" y1="-345.4452046435954" y2="-318.27244007457136" stroke-width="5" stroke="#a9f0f9" stroke-linecap="round"></line><line x1="565.3109166300138" x2="538.1381520609898" y1="-345.4452046435954" y2="-318.27244007457136" stroke-width="5" stroke="#a9f0f9" stroke-linecap="round"></line><line x1="53.310916630013786" x2="26.138152060989746" y1="-89.44520464359539" y2="-62.272440074571364" stroke-width="5" stroke="#a9f0f9" stroke-linecap="round"></line><line x1="309.31091663001376" x2="282.13815206098974" y1="-89.44520464359539" y2="-62.272440074571364" stroke-width="5" stroke="#a9f0f9" stroke-linecap="round"></line><line x1="565.3109166300138" x2="538.1381520609898" y1="-89.44520464359539" y2="-62.272440074571364" stroke-width="5" stroke="#a9f0f9" stroke-linecap="round"></line><line x1="53.310916630013786" x2="26.138152060989746" y1="166.5547953564046" y2="193.72755992542864" stroke-width="5" stroke="#a9f0f9" stroke-linecap="round"></line><line x1="309.31091663001376" x2="282.13815206098974" y1="166.5547953564046" y2="193.72755992542864" stroke-width="5" stroke="#a9f0f9" stroke-linecap="round"></line><line x1="565.3109166300138" x2="538.1381520609898" y1="166.5547953564046" y2="193.72755992542864" stroke-width="5" stroke="#a9f0f9" stroke-linecap="round"></line><line x1="14.750822036941324" x2="-10.578112264405435" y1="117.94423013688504" y2="143.2731644382318" stroke-width="5" stroke="#a9f0f9" stroke-linecap="round"></line><line x1="14.750822036941324" x2="-10.578112264405435" y1="-394.05576986311496" y2="-368.7268355617682" stroke-width="5" stroke="#a9f0f9" stroke-linecap="round"></line><line x1="270.7508220369413" x2="245.42188773559457" y1="-394.05576986311496" y2="-368.7268355617682" stroke-width="5" stroke="#a9f0f9" stroke-linecap="round"></line><line x1="526.7508220369414" x2="501.42188773559457" y1="-394.05576986311496" y2="-368.7268355617682" stroke-width="5" stroke="#a9f0f9" stroke-linecap="round"></line><line x1="14.750822036941324" x2="-10.578112264405435" y1="-138.05576986311496" y2="-112.72683556176821" stroke-width="5" stroke="#a9f0f9" stroke-linecap="round"></line><line x1="270.7508220369413" x2="245.42188773559457" y1="-138.05576986311496" y2="-112.72683556176821" stroke-width="5" stroke="#a9f0f9" stroke-linecap="round"></line><line x1="526.7508220369414" x2="501.42188773559457" y1="-138.05576986311496" y2="-112.72683556176821" stroke-width="5" stroke="#a9f0f9" stroke-linecap="round"></line><line x1="14.750822036941324" x2="-10.578112264405435" y1="117.94423013688504" y2="143.2731644382318" stroke-width="5" stroke="#a9f0f9" stroke-linecap="round"></line><line x1="270.7508220369413" x2="245.42188773559457" y1="117.94423013688504" y2="143.2731644382318" stroke-width="5" stroke="#a9f0f9" stroke-linecap="round"></line><line x1="526.7508220369414" x2="501.42188773559457" y1="117.94423013688504" y2="143.2731644382318" stroke-width="5" stroke="#a9f0f9" stroke-linecap="round"></line><line x1="235.2618811495111" x2="212.80775541946997" y1="110.88671353037645" y2="133.3408392604176" stroke-width="5" stroke="#a9f0f9" stroke-linecap="round"></line><line x1="235.2618811495111" x2="212.80775541946997" y1="-401.1132864696235" y2="-378.6591607395824" stroke-width="5" stroke="#a9f0f9" stroke-linecap="round"></line><line x1="491.2618811495111" x2="468.80775541946997" y1="-401.1132864696235" y2="-378.6591607395824" stroke-width="5" stroke="#a9f0f9" stroke-linecap="round"></line><line x1="747.261881149511" x2="724.8077554194699" y1="-401.1132864696235" y2="-378.6591607395824" stroke-width="5" stroke="#a9f0f9" stroke-linecap="round"></line><line x1="235.2618811495111" x2="212.80775541946997" y1="-145.11328646962355" y2="-122.6591607395824" stroke-width="5" stroke="#a9f0f9" stroke-linecap="round"></line><line x1="491.2618811495111" x2="468.80775541946997" y1="-145.11328646962355" y2="-122.6591607395824" stroke-width="5" stroke="#a9f0f9" stroke-linecap="round"></line><line x1="747.261881149511" x2="724.8077554194699" y1="-145.11328646962355" y2="-122.6591607395824" stroke-width="5" stroke="#a9f0f9" stroke-linecap="round"></line><line x1="235.2618811495111" x2="212.80775541946997" y1="110.88671353037645" y2="133.3408392604176" stroke-width="5" stroke="#a9f0f9" stroke-linecap="round"></line><line x1="491.2618811495111" x2="468.80775541946997" y1="110.88671353037645" y2="133.3408392604176" stroke-width="5" stroke="#a9f0f9" stroke-linecap="round"></line><line x1="747.261881149511" x2="724.8077554194699" y1="110.88671353037645" y2="133.3408392604176" stroke-width="5" stroke="#a9f0f9" stroke-linecap="round"></line><line x1="188.46733936789207" x2="170.16769160740864" y1="68.01321688661069" y2="86.31286464709414" stroke-width="5" stroke="#a9f0f9" stroke-linecap="round"></line><line x1="188.46733936789207" x2="170.16769160740864" y1="-443.9867831133893" y2="-425.68713535290584" stroke-width="5" stroke="#a9f0f9" stroke-linecap="round"></line><line x1="444.46733936789207" x2="426.16769160740864" y1="-443.9867831133893" y2="-425.68713535290584" stroke-width="5" stroke="#a9f0f9" stroke-linecap="round"></line><line x1="700.467339367892" x2="682.1676916074086" y1="-443.9867831133893" y2="-425.68713535290584" stroke-width="5" stroke="#a9f0f9" stroke-linecap="round"></line><line x1="188.46733936789207" x2="170.16769160740864" y1="-187.98678311338932" y2="-169.68713535290584" stroke-width="5" stroke="#a9f0f9" stroke-linecap="round"></line><line x1="444.46733936789207" x2="426.16769160740864" y1="-187.98678311338932" y2="-169.68713535290584" stroke-width="5" stroke="#a9f0f9" stroke-linecap="round"></line><line x1="700.467339367892" x2="682.1676916074086" y1="-187.98678311338932" y2="-169.68713535290584" stroke-width="5" stroke="#a9f0f9" stroke-linecap="round"></line><line x1="188.46733936789207" x2="170.16769160740864" y1="68.01321688661069" y2="86.31286464709414" stroke-width="5" stroke="#a9f0f9" stroke-linecap="round"></line><line x1="444.46733936789207" x2="426.16769160740864" y1="68.01321688661069" y2="86.31286464709414" stroke-width="5" stroke="#a9f0f9" stroke-linecap="round"></line><line x1="700.467339367892" x2="682.1676916074086" y1="68.01321688661069" y2="86.31286464709414" stroke-width="5" stroke="#a9f0f9" stroke-linecap="round"></line><line x1="145.72273508376546" x2="116.36555632546359" y1="87.79819596041372" y2="117.15537471871559" stroke-width="5" stroke="#a9f0f9" stroke-linecap="round"></line><line x1="145.72273508376546" x2="116.36555632546359" y1="-424.20180403958625" y2="-394.8446252812844" stroke-width="5" stroke="#a9f0f9" stroke-linecap="round"></line><line x1="401.72273508376543" x2="372.36555632546356" y1="-424.20180403958625" y2="-394.8446252812844" stroke-width="5" stroke="#a9f0f9" stroke-linecap="round"></line><line x1="657.7227350837654" x2="628.3655563254636" y1="-424.20180403958625" y2="-394.8446252812844" stroke-width="5" stroke="#a9f0f9" stroke-linecap="round"></line><line x1="145.72273508376546" x2="116.36555632546359" y1="-168.20180403958628" y2="-138.8446252812844" stroke-width="5" stroke="#a9f0f9" stroke-linecap="round"></line><line x1="401.72273508376543" x2="372.36555632546356" y1="-168.20180403958628" y2="-138.8446252812844" stroke-width="5" stroke="#a9f0f9" stroke-linecap="round"></line><line x1="657.7227350837654" x2="628.3655563254636" y1="-168.20180403958628" y2="-138.8446252812844" stroke-width="5" stroke="#a9f0f9" stroke-linecap="round"></line><line x1="145.72273508376546" x2="116.36555632546359" y1="87.79819596041372" y2="117.15537471871559" stroke-width="5" stroke="#a9f0f9" stroke-linecap="round"></line><line x1="401.72273508376543" x2="372.36555632546356" y1="87.79819596041372" y2="117.15537471871559" stroke-width="5" stroke="#a9f0f9" stroke-linecap="round"></line><line x1="657.7227350837654" x2="628.3655563254636" y1="87.79819596041372" y2="117.15537471871559" stroke-width="5" stroke="#a9f0f9" stroke-linecap="round"></line><line x1="222.70649472059145" x2="212.65683563523535" y1="195.44594346851488" y2="205.49560255387098" stroke-width="5" stroke="#a9f0f9" stroke-linecap="round"></line><line x1="222.70649472059145" x2="212.65683563523535" y1="-316.5540565314851" y2="-306.504397446129" stroke-width="5" stroke="#a9f0f9" stroke-linecap="round"></line><line x1="478.7064947205914" x2="468.6568356352353" y1="-316.5540565314851" y2="-306.504397446129" stroke-width="5" stroke="#a9f0f9" stroke-linecap="round"></line><line x1="734.7064947205914" x2="724.6568356352353" y1="-316.5540565314851" y2="-306.504397446129" stroke-width="5" stroke="#a9f0f9" stroke-linecap="round"></line><line x1="222.70649472059145" x2="212.65683563523535" y1="-60.55405653148512" y2="-50.50439744612902" stroke-width="5" stroke="#a9f0f9" stroke-linecap="round"></line><line x1="478.7064947205914" x2="468.6568356352353" y1="-60.55405653148512" y2="-50.50439744612902" stroke-width="5" stroke="#a9f0f9" stroke-linecap="round"></line><line x1="734.7064947205914" x2="724.6568356352353" y1="-60.55405653148512" y2="-50.50439744612902" stroke-width="5" stroke="#a9f0f9" stroke-linecap="round"></line><line x1="222.70649472059145" x2="212.65683563523535" y1="195.44594346851488" y2="205.49560255387098" stroke-width="5" stroke="#a9f0f9" stroke-linecap="round"></line><line x1="478.7064947205914" x2="468.6568356352353" y1="195.44594346851488" y2="205.49560255387098" stroke-width="5" stroke="#a9f0f9" stroke-linecap="round"></line><line x1="734.7064947205914" x2="724.6568356352353" y1="195.44594346851488" y2="205.49560255387098" stroke-width="5" stroke="#a9f0f9" stroke-linecap="round"></line><line x1="126.69933510614754" x2="108.34343901111379" y1="245.96531320733044" y2="264.3212093023642" stroke-width="5" stroke="#a9f0f9" stroke-linecap="round"></line><line x1="126.69933510614754" x2="108.34343901111379" y1="-266.03468679266956" y2="-247.6787906976358" stroke-width="5" stroke="#a9f0f9" stroke-linecap="round"></line><line x1="382.69933510614754" x2="364.3434390111138" y1="-266.03468679266956" y2="-247.6787906976358" stroke-width="5" stroke="#a9f0f9" stroke-linecap="round"></line><line x1="638.6993351061476" x2="620.3434390111138" y1="-266.03468679266956" y2="-247.6787906976358" stroke-width="5" stroke="#a9f0f9" stroke-linecap="round"></line><line x1="126.69933510614754" x2="108.34343901111379" y1="-10.03468679266956" y2="8.321209302364196" stroke-width="5" stroke="#a9f0f9" stroke-linecap="round"></line><line x1="382.69933510614754" x2="364.3434390111138" y1="-10.03468679266956" y2="8.321209302364196" stroke-width="5" stroke="#a9f0f9" stroke-linecap="round"></line><line x1="638.6993351061476" x2="620.3434390111138" y1="-10.03468679266956" y2="8.321209302364196" stroke-width="5" stroke="#a9f0f9" stroke-linecap="round"></line><line x1="126.69933510614754" x2="108.34343901111379" y1="245.96531320733044" y2="264.3212093023642" stroke-width="5" stroke="#a9f0f9" stroke-linecap="round"></line><line x1="382.69933510614754" x2="364.3434390111138" y1="245.96531320733044" y2="264.3212093023642" stroke-width="5" stroke="#a9f0f9" stroke-linecap="round"></line><line x1="638.6993351061476" x2="620.3434390111138" y1="245.96531320733044" y2="264.3212093023642" stroke-width="5" stroke="#a9f0f9" stroke-linecap="round"></line><line x1="133.64075433204232" x2="117.07197045067537" y1="160.75288752079544" y2="177.32167140216242" stroke-width="5" stroke="#a9f0f9" stroke-linecap="round"></line><line x1="133.64075433204232" x2="117.07197045067537" y1="-351.2471124792046" y2="-334.67832859783755" stroke-width="5" stroke="#a9f0f9" stroke-linecap="round"></line><line x1="389.6407543320423" x2="373.0719704506754" y1="-351.2471124792046" y2="-334.67832859783755" stroke-width="5" stroke="#a9f0f9" stroke-linecap="round"></line><line x1="645.6407543320423" x2="629.0719704506754" y1="-351.2471124792046" y2="-334.67832859783755" stroke-width="5" stroke="#a9f0f9" stroke-linecap="round"></line><line x1="133.64075433204232" x2="117.07197045067537" y1="-95.24711247920456" y2="-78.67832859783758" stroke-width="5" stroke="#a9f0f9" stroke-linecap="round"></line><line x1="389.6407543320423" x2="373.0719704506754" y1="-95.24711247920456" y2="-78.67832859783758" stroke-width="5" stroke="#a9f0f9" stroke-linecap="round"></line><line x1="645.6407543320423" x2="629.0719704506754" y1="-95.24711247920456" y2="-78.67832859783758" stroke-width="5" stroke="#a9f0f9" stroke-linecap="round"></line><line x1="133.64075433204232" x2="117.07197045067537" y1="160.75288752079544" y2="177.32167140216242" stroke-width="5" stroke="#a9f0f9" stroke-linecap="round"></line><line x1="389.6407543320423" x2="373.0719704506754" y1="160.75288752079544" y2="177.32167140216242" stroke-width="5" stroke="#a9f0f9" stroke-linecap="round"></line><line x1="645.6407543320423" x2="629.0719704506754" y1="160.75288752079544" y2="177.32167140216242" stroke-width="5" stroke="#a9f0f9" stroke-linecap="round"></line>
  <animateTransform attributeName="transform" type="translate" values="0 0;-256 256" keyTimes="0;1" repeatCount="indefinite" dur="0.37453183520599254s"></animateTransform>
</g></g><style type="text/css"></style><!-- [ldio] generated by https://loading.io --></svg>